<?xml version="1.0" encoding="UTF-8"?>
<!DOCTYPE svg PUBLIC "-//W3C//DTD SVG 1.1//EN" "http://www.w3.org/Graphics/SVG/1.1/DTD/svg11.dtd">
<svg xmlns="http://www.w3.org/2000/svg" version="1.1" width="437px" height="383px" style="shape-rendering:geometricPrecision; text-rendering:geometricPrecision; image-rendering:optimizeQuality; fill-rule:evenodd; clip-rule:evenodd" xmlns:xlink="http://www.w3.org/1999/xlink">
<g><path style="opacity:1" fill="#f9f9f9" d="M -0.5,-0.5 C 145.167,-0.5 290.833,-0.5 436.5,-0.5C 436.5,74.1667 436.5,148.833 436.5,223.5C 427.693,222.997 419.026,223.664 410.5,225.5C 392.946,224.648 375.279,224.315 357.5,224.5C 351.5,224.5 345.5,224.5 339.5,224.5C 337.208,224.244 335.041,224.577 333,225.5C 332.111,221.207 331.444,216.54 331,211.5C 329.961,210.29 328.794,209.29 327.5,208.5C 324.767,205.454 321.434,203.12 317.5,201.5C 310.352,200.508 303.019,200.175 295.5,200.5C 295.5,199.5 295.5,198.5 295.5,197.5C 294.5,197.5 293.5,197.5 292.5,197.5C 292.714,193.743 291.714,193.076 289.5,195.5C 288.614,194.675 288.281,193.675 288.5,192.5C 291.157,191.521 291.823,189.854 290.5,187.5C 289.312,188.84 287.812,189.507 286,189.5C 283.329,188.434 280.829,188.434 278.5,189.5C 269.411,186.21 260.078,183.544 250.5,181.5C 249.072,178.697 248.405,175.697 248.5,172.5C 248.587,164.291 247.921,156.291 246.5,148.5C 245.411,141.556 244.745,134.556 244.5,127.5C 244.247,123.96 243.581,120.627 242.5,117.5C 241.15,111.586 240.15,105.586 239.5,99.5C 238.737,98.7321 237.737,98.2321 236.5,98C 237.756,97.5831 238.423,96.7498 238.5,95.5C 238.5,95.1667 238.5,94.8333 238.5,94.5C 238.204,92.597 237.537,90.9303 236.5,89.5C 235.631,87.283 235.298,84.9496 235.5,82.5C 234.838,79.8516 234.171,77.1849 233.5,74.5C 233.253,73.2867 232.586,72.62 231.5,72.5C 228.676,64.1983 225.343,56.1983 221.5,48.5C 219.486,48.6085 217.82,47.9418 216.5,46.5C 212.837,39.9235 207.837,38.4235 201.5,42C 200.007,43.1562 200.174,43.9896 202,44.5C 203.303,44.0217 204.469,43.355 205.5,42.5C 209.335,43.0035 209.335,44.0035 205.5,45.5C 207.074,46.6309 208.741,46.7975 210.5,46C 209.262,45.31 209.262,44.81 210.5,44.5C 212.354,45.241 214.021,46.241 215.5,47.5C 217.531,49.2492 217.865,51.2492 216.5,53.5C 216.779,58.5947 216.445,63.5947 215.5,68.5C 214.629,71.003 213.963,73.6697 213.5,76.5C 211.989,90.2175 209.989,103.884 207.5,117.5C 205.833,118.833 204.167,120.167 202.5,121.5C 197.508,123.329 193.175,126.162 189.5,130C 182.915,136.745 176.915,143.912 171.5,151.5C 168.888,153.052 167.555,155.386 167.5,158.5C 166.209,158.263 165.209,158.596 164.5,159.5C 160.034,159.486 155.368,159.652 150.5,160C 147.5,161.074 144.5,161.907 141.5,162.5C 140.005,162.989 138.671,163.655 137.5,164.5C 131.951,166.857 126.785,169.857 122,173.5C 115.751,180.364 109.751,187.364 104,194.5C 102.538,197.436 101.371,200.436 100.5,203.5C 92.1801,207.05 83.5134,209.383 74.5,210.5C 67.0373,212.672 59.3706,214.339 51.5,215.5C 43.1498,215.235 34.9831,213.902 27,211.5C 26.5,211.833 26,212.167 25.5,212.5C 32.7632,217.753 40.7632,219.419 49.5,217.5C 53.2242,217.894 56.7242,217.227 60,215.5C 63.7771,216.13 67.6105,216.13 71.5,215.5C 71.5,214.5 71.5,213.5 71.5,212.5C 72.5,212.5 73.5,212.5 74.5,212.5C 82.7236,211.389 90.7236,209.389 98.5,206.5C 98.8333,207.167 99.1667,207.833 99.5,208.5C 97.301,216.693 96.301,225.026 96.5,233.5C 95.3951,234.6 94.0618,235.267 92.5,235.5C 89.5,234.167 86.5,234.167 83.5,235.5C 75.8579,236.263 68.1912,236.597 60.5,236.5C 60.2322,238.099 60.5655,239.432 61.5,240.5C 62.1667,240.5 62.8333,240.5 63.5,240.5C 65.5,240.5 67.5,240.5 69.5,240.5C 69.5,241.5 69.5,242.5 69.5,243.5C 72.9717,243.126 75.9717,244.126 78.5,246.5C 79.731,245.349 79.731,244.183 78.5,243C 76.5273,242.505 74.5273,242.338 72.5,242.5C 72.5,241.5 72.5,240.5 72.5,239.5C 73.8333,239.5 75.1667,239.5 76.5,239.5C 78.1667,239.5 79.8333,239.5 81.5,239.5C 83.1172,238.962 84.7839,238.629 86.5,238.5C 86.5792,239.93 86.2458,241.264 85.5,242.5C 86.325,243.386 87.325,243.719 88.5,243.5C 88.5,241.833 88.5,240.167 88.5,238.5C 91.6085,238.264 94.6085,238.597 97.5,239.5C 98.2721,243.452 98.6054,247.452 98.5,251.5C 98.5,253.5 98.5,255.5 98.5,257.5C 96.6693,256.948 95.0026,256.948 93.5,257.5C 95.4872,259.327 97.8205,260.327 100.5,260.5C 100.595,262.786 101.262,264.786 102.5,266.5C 103.34,268.853 104.674,270.853 106.5,272.5C 106.833,273.5 107.5,274.167 108.5,274.5C 112.104,277.448 116.104,279.948 120.5,282C 122.833,282.667 125.167,282.667 127.5,282C 121.546,280.694 116.546,277.861 112.5,273.5C 112.741,271.102 112.074,269.102 110.5,267.5C 108.891,263.702 107.558,259.702 106.5,255.5C 105.551,258.126 105.551,260.792 106.5,263.5C 103.477,263.895 102.477,262.895 103.5,260.5C 100.942,259.782 100.275,258.449 101.5,256.5C 100.886,252.865 100.552,249.198 100.5,245.5C 100.338,243.473 100.505,241.473 101,239.5C 101.383,240.056 101.883,240.389 102.5,240.5C 103.268,241.263 103.768,242.263 104,243.5C 104.21,241.942 104.71,240.609 105.5,239.5C 106.404,238.791 106.737,237.791 106.5,236.5C 111.583,234.922 116.916,234.255 122.5,234.5C 122.5,235.5 122.5,236.5 122.5,237.5C 118.425,237.376 117.092,239.043 118.5,242.5C 118.263,243.791 118.596,244.791 119.5,245.5C 120.568,246.434 121.901,246.768 123.5,246.5C 123.225,250.21 124.558,253.043 127.5,255C 127.77,258.078 127.437,261.245 126.5,264.5C 127.31,272.509 128.31,280.175 129.5,287.5C 129.628,289.09 130.295,290.423 131.5,291.5C 131.567,289.576 131.9,287.576 132.5,285.5C 133.258,286.811 134.258,287.311 135.5,287C 134.62,285.644 134.286,284.144 134.5,282.5C 144.64,281.217 154.306,278.551 163.5,274.5C 163.5,273.5 163.5,272.5 163.5,271.5C 156.263,274.634 148.93,277.467 141.5,280C 138.739,280.722 136.073,280.555 133.5,279.5C 133.896,276.956 133.229,274.789 131.5,273C 132.814,270.395 132.814,267.895 131.5,265.5C 130.76,258.842 130.094,252.175 129.5,245.5C 130.846,243.463 132.18,241.463 133.5,239.5C 134.791,239.737 135.791,239.404 136.5,238.5C 137.167,238.167 137.833,237.833 138.5,237.5C 139.609,237.443 140.609,237.11 141.5,236.5C 143.599,237.231 145.599,237.231 147.5,236.5C 146.167,235.38 145.667,234.047 146,232.5C 148.179,233.762 150.345,235.095 152.5,236.5C 153.251,235.624 153.751,234.624 154,233.5C 155.333,236.167 156.667,236.167 158,233.5C 158.791,234.745 159.291,236.078 159.5,237.5C 160.494,243.823 161.827,249.823 163.5,255.5C 163.181,248.108 163.181,240.775 163.5,233.5C 163.793,237.193 165.127,240.36 167.5,243C 166.376,243.249 165.376,243.749 164.5,244.5C 166.415,246.071 167.415,248.071 167.5,250.5C 169.082,254.669 171.415,258.335 174.5,261.5C 176.677,260.496 177.011,261.162 175.5,263.5C 176.776,264.645 178.109,264.645 179.5,263.5C 180.386,264.325 180.719,265.325 180.5,266.5C 179.5,266.5 178.5,266.5 177.5,266.5C 177.265,265.903 176.765,265.57 176,265.5C 173.328,267.327 170.495,268.661 167.5,269.5C 167.785,267.712 167.452,266.045 166.5,264.5C 165.167,267.5 165.167,270.5 166.5,273.5C 168.966,279.334 170.966,285.334 172.5,291.5C 175.761,295.619 178.595,299.952 181,304.5C 181.684,305.784 181.517,306.951 180.5,308C 182.259,308.798 183.926,308.631 185.5,307.5C 182.574,303.21 179.741,298.877 177,294.5C 176.009,292.553 175.675,290.553 176,288.5C 177.185,290.559 178.352,290.726 179.5,289C 179.062,287.08 178.395,285.246 177.5,283.5C 176.614,284.325 176.281,285.325 176.5,286.5C 175.5,286.5 174.5,286.5 173.5,286.5C 172.975,282.263 171.642,278.43 169.5,275C 170.303,271.698 172.303,269.531 175.5,268.5C 177.833,268.5 180.167,268.5 182.5,268.5C 183.186,269.848 184.186,271.015 185.5,272C 187.81,272.497 190.143,272.663 192.5,272.5C 192.5,269.5 192.5,266.5 192.5,263.5C 190.396,263.201 188.396,263.534 186.5,264.5C 187.09,265.799 188.09,266.632 189.5,267C 188.054,268.298 186.721,268.465 185.5,267.5C 185.294,265.451 184.461,265.117 183,266.5C 182.667,265.5 182.333,264.5 182,263.5C 179.667,261.167 177.333,258.833 175,256.5C 174.335,252.95 172.501,250.283 169.5,248.5C 171.109,245.293 170.775,242.293 168.5,239.5C 169.972,236.851 170.972,234.018 171.5,231C 180.8,229.872 190.134,229.372 199.5,229.5C 199.833,229.5 200.167,229.5 200.5,229.5C 201.467,246.176 202.634,262.842 204,279.5C 204.567,286.334 205.9,293.001 208,299.5C 208.499,303.486 208.666,307.486 208.5,311.5C 207.833,316.167 207.167,320.833 206.5,325.5C 204.712,325.785 203.045,325.452 201.5,324.5C 198.623,322.931 195.956,321.264 193.5,319.5C 192.123,315.953 190.123,312.786 187.5,310C 186.517,309.409 185.85,309.743 185.5,311C 186.738,313.545 188.071,316.045 189.5,318.5C 193.359,322.194 197.359,325.694 201.5,329C 202.448,329.483 203.448,329.649 204.5,329.5C 204.069,332.988 203.069,336.321 201.5,339.5C 201.919,340.672 202.585,341.672 203.5,342.5C 202.675,343.386 201.675,343.719 200.5,343.5C 200.296,346.518 199.963,349.518 199.5,352.5C 201.347,350.818 202.847,348.818 204,346.5C 205.576,342.35 207.409,338.35 209.5,334.5C 208.675,333.614 207.675,333.281 206.5,333.5C 206.167,330.5 207.5,329.167 210.5,329.5C 210.5,330.5 210.5,331.5 210.5,332.5C 214.835,332.917 219.168,333.417 223.5,334C 223.167,334.333 222.833,334.667 222.5,335C 223.448,335.483 224.448,335.649 225.5,335.5C 227.368,332.852 229.368,330.185 231.5,327.5C 233.184,324.496 235.517,322.163 238.5,320.5C 240.624,315.013 242.29,309.346 243.5,303.5C 243.833,303.5 244.167,303.5 244.5,303.5C 245.627,302.878 246.627,302.045 247.5,301C 246.167,300 246.167,299 247.5,298C 249.107,298.019 250.774,298.185 252.5,298.5C 252.5,299.5 252.5,300.5 252.5,301.5C 253.93,301.421 255.264,301.754 256.5,302.5C 257.386,301.675 257.719,300.675 257.5,299.5C 255.007,299.869 254.34,299.203 255.5,297.5C 258.216,297.322 260.883,296.822 263.5,296C 258.371,295.096 253.371,293.929 248.5,292.5C 247.167,288.833 247.167,285.167 248.5,281.5C 250.025,275.244 251.691,268.91 253.5,262.5C 254.735,263.34 255.735,264.34 256.5,265.5C 258.25,269.073 261.25,271.24 265.5,272C 272.153,272.822 278.486,272.155 284.5,270C 290.281,272.889 291.615,277.056 288.5,282.5C 284.893,282.379 282.727,284.045 282,287.5C 277.625,290.628 272.792,292.794 267.5,294C 273.196,294.074 278.529,292.574 283.5,289.5C 287.151,286.349 290.651,283.016 294,279.5C 294.495,277.527 294.662,275.527 294.5,273.5C 293.167,273.5 291.833,273.5 290.5,273.5C 290.682,271.409 290.348,269.409 289.5,267.5C 295.91,263.966 302.243,260.466 308.5,257C 320.001,250.498 327.335,240.832 330.5,228C 336.491,227.501 342.491,227.334 348.5,227.5C 377.833,227.5 407.167,227.5 436.5,227.5C 436.5,279.167 436.5,330.833 436.5,382.5C 290.833,382.5 145.167,382.5 -0.5,382.5C -0.5,254.833 -0.5,127.167 -0.5,-0.5 Z"/></g>
<g><path style="opacity:1" fill="#424243" d="M 171.5,37.5 C 171.5,37.1667 171.5,36.8333 171.5,36.5C 180.088,35.3643 188.755,35.1977 197.5,36C 199.715,36.1705 201.715,36.8372 203.5,38C 197.417,37.152 191.251,36.652 185,36.5C 180.474,36.6415 175.974,36.9748 171.5,37.5 Z"/></g>
<g><path style="opacity:1" fill="#797979" d="M 171.5,36.5 C 171.5,36.8333 171.5,37.1667 171.5,37.5C 166.927,38.9781 162.26,39.8114 157.5,40C 161.725,37.2529 166.392,36.0862 171.5,36.5 Z"/></g>
<g><path style="opacity:1" fill="#5c5f63" d="M 216.5,46.5 C 216.5,47.1667 216.167,47.5 215.5,47.5C 214.021,46.241 212.354,45.241 210.5,44.5C 209.456,41.7998 207.79,41.1332 205.5,42.5C 204.469,43.355 203.303,44.0217 202,44.5C 200.174,43.9896 200.007,43.1562 201.5,42C 207.837,38.4235 212.837,39.9235 216.5,46.5 Z"/></g>
<g><path style="opacity:1" fill="#b9bdc2" d="M 205.5,42.5 C 207.79,41.1332 209.456,41.7998 210.5,44.5C 209.262,44.81 209.262,45.31 210.5,46C 208.741,46.7975 207.074,46.6309 205.5,45.5C 209.335,44.0035 209.335,43.0035 205.5,42.5 Z"/></g>
<g><path style="opacity:1" fill="#a0a0a0" d="M 145.5,42.5 C 147.857,42.3367 150.19,42.5034 152.5,43C 147.611,44.4433 142.945,46.4433 138.5,49C 137.167,49.6667 135.833,49.6667 134.5,49C 138.488,47.269 142.155,45.1024 145.5,42.5 Z"/></g>
<g><path style="opacity:1" fill="#878787" d="M 105.5,69.5 C 104.508,69.6716 103.842,69.3382 103.5,68.5C 111.359,61.1547 120.192,55.1547 130,50.5C 130.163,52.3867 129.329,53.8867 127.5,55C 119.274,58.6041 111.94,63.4374 105.5,69.5 Z"/></g>
<g><path style="opacity:1" fill="#74758b" d="M 216.5,46.5 C 217.82,47.9418 219.486,48.6085 221.5,48.5C 225.343,56.1983 228.676,64.1983 231.5,72.5C 232.014,74.5116 232.18,76.5116 232,78.5C 231.617,77.944 231.117,77.6107 230.5,77.5C 230.216,72.2595 227.882,68.2595 223.5,65.5C 224.52,63.5675 224.687,61.5675 224,59.5C 222.989,58.6634 221.822,58.33 220.5,58.5C 220.743,77.4001 220.077,96.4001 218.5,115.5C 216.7,108.188 216.366,100.855 217.5,93.5C 217.815,87.5527 218.148,81.7194 218.5,76C 218.164,74.9701 217.497,74.4701 216.5,74.5C 217.637,69.971 218.303,65.3043 218.5,60.5C 218.471,57.7305 217.805,55.3972 216.5,53.5C 217.865,51.2492 217.531,49.2492 215.5,47.5C 216.167,47.5 216.5,47.1667 216.5,46.5 Z"/></g>
<g><path style="opacity:1" fill="#3b3e5a" d="M 216.5,53.5 C 217.805,55.3972 218.471,57.7305 218.5,60.5C 218.303,65.3043 217.637,69.971 216.5,74.5C 215.539,72.7354 215.205,70.7354 215.5,68.5C 216.445,63.5947 216.779,58.5947 216.5,53.5 Z"/></g>
<g><path style="opacity:1" fill="#eff0f3" d="M 230.5,77.5 C 229.103,79.8225 229.77,81.4891 232.5,82.5C 235.214,84.7826 235.047,86.7826 232,88.5C 230.72,93.1669 229.553,97.8336 228.5,102.5C 228.5,107.167 228.5,111.833 228.5,116.5C 227.539,118.265 227.205,120.265 227.5,122.5C 223.8,122.464 221.133,120.797 219.5,117.5C 217.167,117.5 214.833,117.5 212.5,117.5C 211.5,117.5 210.5,117.5 209.5,117.5C 211.417,107.575 213.084,97.5749 214.5,87.5C 215.268,86.7375 215.768,85.7375 216,84.5C 216.181,87.6946 216.681,90.6946 217.5,93.5C 216.366,100.855 216.7,108.188 218.5,115.5C 220.077,96.4001 220.743,77.4001 220.5,58.5C 221.822,58.33 222.989,58.6634 224,59.5C 224.687,61.5675 224.52,63.5675 223.5,65.5C 227.882,68.2595 230.216,72.2595 230.5,77.5 Z"/></g>
<g><path style="opacity:1" fill="#adaead" d="M 103.5,68.5 C 103.842,69.3382 104.508,69.6716 105.5,69.5C 102.747,69.8792 100.747,71.3792 99.5,74C 96.0992,73.734 94.4326,75.234 94.5,78.5C 93.448,78.3505 92.448,78.5172 91.5,79C 87.2204,83.5074 82.7204,87.6741 78,91.5C 77.9558,89.2403 78.7892,87.2403 80.5,85.5C 86.6516,80.1204 92.9849,74.9538 99.5,70C 100.745,69.2086 102.078,68.7086 103.5,68.5 Z"/></g>
<g><path style="opacity:1" fill="#b5b8be" d="M 231.5,72.5 C 232.586,72.62 233.253,73.2867 233.5,74.5C 234.171,77.1849 234.838,79.8516 235.5,82.5C 234.288,81.7701 233.288,80.7701 232.5,79.5C 231.913,80.2334 231.913,81.2334 232.5,82.5C 229.77,81.4891 229.103,79.8225 230.5,77.5C 231.117,77.6107 231.617,77.944 232,78.5C 232.18,76.5116 232.014,74.5116 231.5,72.5 Z"/></g>
<g><path style="opacity:1" fill="#b4b7d5" d="M 215.5,68.5 C 215.205,70.7354 215.539,72.7354 216.5,74.5C 217.497,74.4701 218.164,74.9701 218.5,76C 218.148,81.7194 217.815,87.5527 217.5,93.5C 216.681,90.6946 216.181,87.6946 216,84.5C 215.768,85.7375 215.268,86.7375 214.5,87.5C 215.19,83.5104 215.357,79.5104 215,75.5C 214.617,76.056 214.117,76.3893 213.5,76.5C 213.963,73.6697 214.629,71.003 215.5,68.5 Z"/></g>
<g><path style="opacity:1" fill="#7c7e89" d="M 214.5,87.5 C 213.084,97.5749 211.417,107.575 209.5,117.5C 210.5,117.5 211.5,117.5 212.5,117.5C 210.95,118.72 209.284,118.72 207.5,117.5C 209.989,103.884 211.989,90.2175 213.5,76.5C 214.117,76.3893 214.617,76.056 215,75.5C 215.357,79.5104 215.19,83.5104 214.5,87.5 Z"/></g>
<g><path style="opacity:1" fill="#a3a3be" d="M 236.5,89.5 C 237.537,90.9303 238.204,92.597 238.5,94.5C 236.5,94.5 234.5,94.5 232.5,94.5C 232.288,89.557 233.288,88.8903 235.5,92.5C 236.386,91.675 236.719,90.675 236.5,89.5 Z"/></g>
<g><path style="opacity:1" fill="#66687c" d="M 235.5,82.5 C 235.298,84.9496 235.631,87.283 236.5,89.5C 236.719,90.675 236.386,91.675 235.5,92.5C 233.288,88.8903 232.288,89.557 232.5,94.5C 234.5,94.5 236.5,94.5 238.5,94.5C 238.5,94.8333 238.5,95.1667 238.5,95.5C 236.586,96.1847 234.586,96.6847 232.5,97C 231.748,97.6708 231.414,98.5041 231.5,99.5C 230.883,99.3893 230.383,99.056 230,98.5C 229.79,100.058 229.29,101.391 228.5,102.5C 229.553,97.8336 230.72,93.1669 232,88.5C 235.047,86.7826 235.214,84.7826 232.5,82.5C 231.913,81.2334 231.913,80.2334 232.5,79.5C 233.288,80.7701 234.288,81.7701 235.5,82.5 Z"/></g>
<g><path style="opacity:1" fill="#aaadc2" d="M 238.5,95.5 C 238.423,96.7498 237.756,97.5831 236.5,98C 237.737,98.2321 238.737,98.7321 239.5,99.5C 237.54,100.138 235.707,100.138 234,99.5C 233.82,101.488 233.986,103.488 234.5,105.5C 233.849,104.909 233.182,104.243 232.5,103.5C 231.833,107.647 231.166,111.647 230.5,115.5C 230.324,110.12 230.658,104.787 231.5,99.5C 231.414,98.5041 231.748,97.6708 232.5,97C 234.586,96.6847 236.586,96.1847 238.5,95.5 Z"/></g>
<g><path style="opacity:1" fill="#949494" d="M 67.5,97.5 C 69.3547,97.272 70.1881,97.9387 70,99.5C 59.9725,110.25 59.1392,109.583 67.5,97.5 Z"/></g>
<g><path style="opacity:1" fill="#3a3e4a" d="M 231.5,99.5 C 230.658,104.787 230.324,110.12 230.5,115.5C 229.549,116.919 229.216,118.585 229.5,120.5C 228.566,119.432 228.232,118.099 228.5,116.5C 228.5,111.833 228.5,107.167 228.5,102.5C 229.29,101.391 229.79,100.058 230,98.5C 230.383,99.056 230.883,99.3893 231.5,99.5 Z"/></g>
<g><path style="opacity:1" fill="#ebecef" d="M 234.5,105.5 C 235.58,116.877 236.58,128.211 237.5,139.5C 237.768,141.099 237.434,142.432 236.5,143.5C 235.367,140.262 234.533,136.929 234,133.5C 231.97,131.21 230.137,128.71 228.5,126C 229.233,124.234 229.567,122.401 229.5,120.5C 229.216,118.585 229.549,116.919 230.5,115.5C 231.166,111.647 231.833,107.647 232.5,103.5C 233.182,104.243 233.849,104.909 234.5,105.5 Z"/></g>
<g><path style="opacity:1" fill="#606069" d="M 239.5,99.5 C 240.15,105.586 241.15,111.586 242.5,117.5C 242.66,119.199 242.494,120.866 242,122.5C 240.564,115.82 239.064,109.154 237.5,102.5C 237.167,104 236.833,105.5 236.5,107C 237.418,117.515 238.418,128.015 239.5,138.5C 239.66,140.199 239.494,141.866 239,143.5C 238.79,141.942 238.29,140.609 237.5,139.5C 236.58,128.211 235.58,116.877 234.5,105.5C 233.986,103.488 233.82,101.488 234,99.5C 235.707,100.138 237.54,100.138 239.5,99.5 Z"/></g>
<g><path style="opacity:1" fill="#3a3a43" d="M 207.5,117.5 C 209.284,118.72 210.95,118.72 212.5,117.5C 214.833,117.5 217.167,117.5 219.5,117.5C 216.109,119.125 212.442,120.125 208.5,120.5C 207.833,120.5 207.5,120.833 207.5,121.5C 206.209,121.263 205.209,121.596 204.5,122.5C 204.167,122.5 203.833,122.5 203.5,122.5C 202.833,122.5 202.5,122.167 202.5,121.5C 204.167,120.167 205.833,118.833 207.5,117.5 Z"/></g>
<g><path style="opacity:1" fill="#f4f4f5" d="M 208.5,120.5 C 211.898,120.18 215.232,120.513 218.5,121.5C 216.209,130.675 215.876,140.009 217.5,149.5C 217.948,158.689 217.948,168.022 217.5,177.5C 216.054,178.613 214.387,178.78 212.5,178C 211.692,176.294 210.359,175.461 208.5,175.5C 208.5,175.167 208.5,174.833 208.5,174.5C 204.061,172.13 202.061,168.296 202.5,163C 204.372,149.189 206.039,135.356 207.5,121.5C 207.5,120.833 207.833,120.5 208.5,120.5 Z"/></g>
<g><path style="opacity:1" fill="#f5f5f5" d="M 203.5,122.5 C 203.833,122.5 204.167,122.5 204.5,122.5C 205.376,122.369 206.043,122.702 206.5,123.5C 203.682,138.221 201.348,152.888 199.5,167.5C 197.633,167.955 195.8,168.622 194,169.5C 192.566,169.138 191.399,168.472 190.5,167.5C 189.328,166.295 187.995,166.295 186.5,167.5C 185.614,166.675 185.281,165.675 185.5,164.5C 182.67,164.306 180.004,163.639 177.5,162.5C 175.867,161.055 174.034,159.721 172,158.5C 171.257,156.126 171.757,154.126 173.5,152.5C 181.52,140.48 191.52,130.48 203.5,122.5 Z"/></g>
<g><path style="opacity:1" fill="#868686" d="M 55.5,112.5 C 56.0431,112.56 56.3764,112.893 56.5,113.5C 52.8925,118.949 49.0592,124.283 45,129.5C 44.3333,128.167 44.3333,126.833 45,125.5C 48.637,121.268 52.137,116.935 55.5,112.5 Z"/></g>
<g><path style="opacity:1" fill="#717178" d="M 228.5,116.5 C 228.232,118.099 228.566,119.432 229.5,120.5C 229.567,122.401 229.233,124.234 228.5,126C 230.137,128.71 231.97,131.21 234,133.5C 234.533,136.929 235.367,140.262 236.5,143.5C 236.5,144.833 235.833,145.5 234.5,145.5C 233.977,142.11 233.143,138.777 232,135.5C 231.29,134.027 230.124,133.36 228.5,133.5C 228.417,137.778 227.417,141.778 225.5,145.5C 225.931,146.293 226.265,147.127 226.5,148C 225.348,153.708 224.681,159.208 224.5,164.5C 223.833,165.167 223.167,165.833 222.5,166.5C 222.5,165.833 222.5,165.167 222.5,164.5C 223.987,153.734 224.987,142.901 225.5,132C 225.654,127.085 223.321,124.252 218.5,123.5C 218.294,131.688 218.627,140.022 219.5,148.5C 219.665,151.85 219.498,155.183 219,158.5C 218.819,155.305 218.319,152.305 217.5,149.5C 215.876,140.009 216.209,130.675 218.5,121.5C 215.232,120.513 211.898,120.18 208.5,120.5C 212.442,120.125 216.109,119.125 219.5,117.5C 221.133,120.797 223.8,122.464 227.5,122.5C 227.205,120.265 227.539,118.265 228.5,116.5 Z"/></g>
<g><path style="opacity:1" fill="#ecebef" d="M 222.5,164.5 C 220.856,159.41 219.856,154.077 219.5,148.5C 218.627,140.022 218.294,131.688 218.5,123.5C 223.321,124.252 225.654,127.085 225.5,132C 224.987,142.901 223.987,153.734 222.5,164.5 Z"/></g>
<g><path style="opacity:1" fill="#dddce2" d="M 242.5,117.5 C 243.581,120.627 244.247,123.96 244.5,127.5C 243.213,128.871 242.547,130.705 242.5,133C 244.022,141.759 245.022,150.592 245.5,159.5C 245.663,161.857 245.497,164.19 245,166.5C 244.647,163.848 243.48,161.848 241.5,160.5C 241.758,156.633 241.092,152.966 239.5,149.5C 240.586,149.38 241.253,148.713 241.5,147.5C 241.009,144.326 240.343,141.326 239.5,138.5C 238.418,128.015 237.418,117.515 236.5,107C 236.833,105.5 237.167,104 237.5,102.5C 239.064,109.154 240.564,115.82 242,122.5C 242.494,120.866 242.66,119.199 242.5,117.5 Z"/></g>
<g><path style="opacity:1" fill="#79797e" d="M 204.5,122.5 C 205.209,121.596 206.209,121.263 207.5,121.5C 206.039,135.356 204.372,149.189 202.5,163C 202.061,168.296 204.061,172.13 208.5,174.5C 205.286,174.05 202.619,172.717 200.5,170.5C 199.89,169.609 199.557,168.609 199.5,167.5C 201.348,152.888 203.682,138.221 206.5,123.5C 206.043,122.702 205.376,122.369 204.5,122.5 Z"/></g>
<g><path style="opacity:1" fill="#f3f2f4" d="M 234.5,145.5 C 235.842,147.361 236.842,149.361 237.5,151.5C 238.903,154.909 239.57,158.575 239.5,162.5C 240.241,168.471 240.575,174.471 240.5,180.5C 238.5,180.5 236.5,180.5 234.5,180.5C 232.401,179.388 230.067,178.721 227.5,178.5C 227.737,177.209 227.404,176.209 226.5,175.5C 225.598,172.003 224.931,168.337 224.5,164.5C 224.681,159.208 225.348,153.708 226.5,148C 226.265,147.127 225.931,146.293 225.5,145.5C 227.417,141.778 228.417,137.778 228.5,133.5C 230.124,133.36 231.29,134.027 232,135.5C 233.143,138.777 233.977,142.11 234.5,145.5 Z"/></g>
<g><path style="opacity:1" fill="#727174" d="M 202.5,121.5 C 202.5,122.167 202.833,122.5 203.5,122.5C 191.52,130.48 181.52,140.48 173.5,152.5C 172.508,152.672 171.842,152.338 171.5,151.5C 176.915,143.912 182.915,136.745 189.5,130C 193.175,126.162 197.508,123.329 202.5,121.5 Z"/></g>
<g><path style="opacity:1" fill="#9f9da4" d="M 239.5,138.5 C 240.343,141.326 241.009,144.326 241.5,147.5C 241.253,148.713 240.586,149.38 239.5,149.5C 238.778,149.082 238.278,148.416 238,147.5C 237.51,148.793 237.343,150.127 237.5,151.5C 236.842,149.361 235.842,147.361 234.5,145.5C 235.833,145.5 236.5,144.833 236.5,143.5C 237.434,142.432 237.768,141.099 237.5,139.5C 238.29,140.609 238.79,141.942 239,143.5C 239.494,141.866 239.66,140.199 239.5,138.5 Z"/></g>
<g><path style="opacity:1" fill="#777777" d="M 19.5,183.5 C 18.5489,182.081 18.2155,180.415 18.5,178.5C 23.1117,165.515 28.6117,152.849 35,140.5C 36.6851,138.983 38.1851,137.316 39.5,135.5C 39.8333,135.833 40.1667,136.167 40.5,136.5C 31.8475,151.471 24.8475,167.138 19.5,183.5 Z"/></g>
<g><path style="opacity:1" fill="#56555c" d="M 244.5,127.5 C 244.745,134.556 245.411,141.556 246.5,148.5C 246.815,152.371 246.482,156.038 245.5,159.5C 245.022,150.592 244.022,141.759 242.5,133C 242.547,130.705 243.213,128.871 244.5,127.5 Z"/></g>
<g><path style="opacity:1" fill="#5b5a63" d="M 239.5,149.5 C 241.092,152.966 241.758,156.633 241.5,160.5C 241.5,161.833 240.833,162.5 239.5,162.5C 239.57,158.575 238.903,154.909 237.5,151.5C 237.343,150.127 237.51,148.793 238,147.5C 238.278,148.416 238.778,149.082 239.5,149.5 Z"/></g>
<g><path style="opacity:1" fill="#aaa8b9" d="M 219.5,148.5 C 219.856,154.077 220.856,159.41 222.5,164.5C 222.5,165.167 222.5,165.833 222.5,166.5C 222.216,169.777 222.549,172.943 223.5,176C 222.584,176.374 221.75,176.874 221,177.5C 220.597,172.133 219.93,166.799 219,161.5C 218.827,167.016 218.327,172.349 217.5,177.5C 217.948,168.022 217.948,158.689 217.5,149.5C 218.319,152.305 218.819,155.305 219,158.5C 219.498,155.183 219.665,151.85 219.5,148.5 Z"/></g>
<g><path style="opacity:1" fill="#b4b2b9" d="M 171.5,151.5 C 171.842,152.338 172.508,152.672 173.5,152.5C 171.757,154.126 171.257,156.126 172,158.5C 174.034,159.721 175.867,161.055 177.5,162.5C 177.5,163.167 177.5,163.833 177.5,164.5C 173.994,162.916 170.327,162.416 166.5,163C 167.056,163.383 167.389,163.883 167.5,164.5C 166.833,164.5 166.167,164.5 165.5,164.5C 165.5,163.5 165.5,162.5 165.5,161.5C 167.288,161.785 168.955,161.452 170.5,160.5C 168.604,159.534 166.604,159.201 164.5,159.5C 165.209,158.596 166.209,158.263 167.5,158.5C 167.555,155.386 168.888,153.052 171.5,151.5 Z"/></g>
<g><path style="opacity:1" fill="#706d83" d="M 164.5,159.5 C 166.604,159.201 168.604,159.534 170.5,160.5C 168.955,161.452 167.288,161.785 165.5,161.5C 160.453,161.337 155.453,161.671 150.5,162.5C 150.5,163.5 150.5,164.5 150.5,165.5C 146.971,165.443 143.971,164.443 141.5,162.5C 144.5,161.907 147.5,161.074 150.5,160C 155.368,159.652 160.034,159.486 164.5,159.5 Z"/></g>
<g><path style="opacity:1" fill="#ededf3" d="M 165.5,161.5 C 165.5,162.5 165.5,163.5 165.5,164.5C 165.762,165.978 165.429,167.311 164.5,168.5C 160.783,167.862 157.116,167.528 153.5,167.5C 152.5,166.833 151.5,166.167 150.5,165.5C 150.5,164.5 150.5,163.5 150.5,162.5C 155.453,161.671 160.453,161.337 165.5,161.5 Z"/></g>
<g><path style="opacity:1" fill="#b1accf" d="M 141.5,162.5 C 143.971,164.443 146.971,165.443 150.5,165.5C 151.5,166.167 152.5,166.833 153.5,167.5C 151.801,167.34 150.134,167.506 148.5,168C 147.748,168.671 147.414,169.504 147.5,170.5C 145.5,170.5 143.5,170.5 141.5,170.5C 138.572,169.813 135.572,169.479 132.5,169.5C 135.263,168.896 137.597,167.562 139.5,165.5C 139.043,164.702 138.376,164.369 137.5,164.5C 138.671,163.655 140.005,162.989 141.5,162.5 Z"/></g>
<g><path style="opacity:1" fill="#a4a4bb" d="M 246.5,148.5 C 247.921,156.291 248.587,164.291 248.5,172.5C 247.185,170.401 245.518,170.067 243.5,171.5C 241.89,174.203 240.89,177.203 240.5,180.5C 240.575,174.471 240.241,168.471 239.5,162.5C 240.833,162.5 241.5,161.833 241.5,160.5C 243.48,161.848 244.647,163.848 245,166.5C 245.497,164.19 245.663,161.857 245.5,159.5C 246.482,156.038 246.815,152.371 246.5,148.5 Z"/></g>
<g><path style="opacity:1" fill="#6e6c7d" d="M 165.5,164.5 C 166.167,164.5 166.833,164.5 167.5,164.5C 167.5,165.5 167.5,166.5 167.5,167.5C 169.288,167.215 170.955,167.548 172.5,168.5C 170.257,169.474 167.924,169.808 165.5,169.5C 165.5,170.833 165.5,172.167 165.5,173.5C 164.199,177.943 163.532,182.609 163.5,187.5C 162.596,188.209 162.263,189.209 162.5,190.5C 161.508,190.328 160.842,190.662 160.5,191.5C 148.373,193.332 136.373,195.999 124.5,199.5C 123.957,199.44 123.624,199.107 123.5,198.5C 124.602,197.824 125.602,197.158 126.5,196.5C 137.487,193.944 148.487,191.277 159.5,188.5C 161.445,182.711 162.779,176.711 163.5,170.5C 161.5,170.5 159.5,170.5 157.5,170.5C 157.778,172.346 157.111,173.68 155.5,174.5C 155.167,173.167 154.833,171.833 154.5,170.5C 153.833,171.5 153.167,172.5 152.5,173.5C 150.897,172.207 149.231,171.207 147.5,170.5C 147.414,169.504 147.748,168.671 148.5,168C 150.134,167.506 151.801,167.34 153.5,167.5C 157.116,167.528 160.783,167.862 164.5,168.5C 165.429,167.311 165.762,165.978 165.5,164.5 Z"/></g>
<g><path style="opacity:1" fill="#82808b" d="M 177.5,162.5 C 180.004,163.639 182.67,164.306 185.5,164.5C 185.281,165.675 185.614,166.675 186.5,167.5C 187.995,166.295 189.328,166.295 190.5,167.5C 190.626,169.2 191.293,170.7 192.5,172C 192.43,172.765 192.097,173.265 191.5,173.5C 186.32,170.466 180.654,168.799 174.5,168.5C 176.833,167.833 179.167,167.167 181.5,166.5C 180.234,165.638 178.901,164.971 177.5,164.5C 177.5,163.833 177.5,163.167 177.5,162.5 Z"/></g>
<g><path style="opacity:1" fill="#f3f3f5" d="M 177.5,164.5 C 178.901,164.971 180.234,165.638 181.5,166.5C 179.167,167.167 176.833,167.833 174.5,168.5C 180.654,168.799 186.32,170.466 191.5,173.5C 192.568,174.434 193.901,174.768 195.5,174.5C 195.5,175.5 195.5,176.5 195.5,177.5C 196.5,177.5 197.5,177.5 198.5,177.5C 198.737,178.791 198.404,179.791 197.5,180.5C 192.519,181.089 187.519,181.589 182.5,182C 178.719,183.827 174.719,184.827 170.5,185C 169.944,185.383 169.611,185.883 169.5,186.5C 167.833,186.5 166.167,186.5 164.5,186.5C 164.36,184.876 165.027,183.71 166.5,183C 165.549,179.943 165.216,176.777 165.5,173.5C 165.5,172.167 165.5,170.833 165.5,169.5C 167.924,169.808 170.257,169.474 172.5,168.5C 170.955,167.548 169.288,167.215 167.5,167.5C 167.5,166.5 167.5,165.5 167.5,164.5C 167.389,163.883 167.056,163.383 166.5,163C 170.327,162.416 173.994,162.916 177.5,164.5 Z"/></g>
<g><path style="opacity:1" fill="#f4f4f5" d="M 141.5,170.5 C 143.5,170.5 145.5,170.5 147.5,170.5C 149.231,171.207 150.897,172.207 152.5,173.5C 153.167,172.5 153.833,171.5 154.5,170.5C 154.833,171.833 155.167,173.167 155.5,174.5C 157.111,173.68 157.778,172.346 157.5,170.5C 159.5,170.5 161.5,170.5 163.5,170.5C 162.779,176.711 161.445,182.711 159.5,188.5C 148.487,191.277 137.487,193.944 126.5,196.5C 123.63,194.533 122.963,191.866 124.5,188.5C 124.547,186.962 123.88,185.962 122.5,185.5C 122.5,184.5 122.5,183.5 122.5,182.5C 123.434,181.432 123.768,180.099 123.5,178.5C 126.151,176.613 128.817,174.613 131.5,172.5C 134.941,171.903 138.275,171.237 141.5,170.5 Z"/></g>
<g><path style="opacity:1" fill="#7d7c9a" d="M 190.5,167.5 C 191.399,168.472 192.566,169.138 194,169.5C 195.8,168.622 197.633,167.955 199.5,167.5C 199.557,168.609 199.89,169.609 200.5,170.5C 200.389,171.117 200.056,171.617 199.5,172C 202.367,174.6 202.201,175.766 199,175.5C 198.536,176.094 198.369,176.761 198.5,177.5C 197.5,177.5 196.5,177.5 195.5,177.5C 195.5,176.5 195.5,175.5 195.5,174.5C 193.901,174.768 192.568,174.434 191.5,173.5C 192.097,173.265 192.43,172.765 192.5,172C 191.293,170.7 190.626,169.2 190.5,167.5 Z"/></g>
<g><path style="opacity:1" fill="#9f9dac" d="M 131.5,172.5 C 128.817,174.613 126.151,176.613 123.5,178.5C 123.768,180.099 123.434,181.432 122.5,182.5C 122.061,176.857 124.728,172.857 130.5,170.5C 130.787,171.2 131.12,171.867 131.5,172.5 Z"/></g>
<g><path style="opacity:1" fill="#919191" d="M 133.5,173.5 C 134.434,174.568 134.768,175.901 134.5,177.5C 133.325,177.719 132.325,177.386 131.5,176.5C 132.612,175.735 133.279,174.735 133.5,173.5 Z"/></g>
<g><path style="opacity:1" fill="#606060" d="M 127.5,178.5 C 129.337,178.639 129.67,179.306 128.5,180.5C 127.702,180.043 127.369,179.376 127.5,178.5 Z"/></g>
<g><path style="opacity:1" fill="#b4b0c9" d="M 226.5,175.5 C 227.404,176.209 227.737,177.209 227.5,178.5C 230.067,178.721 232.401,179.388 234.5,180.5C 233.022,180.238 231.689,180.571 230.5,181.5C 234.313,182.167 237.979,182.834 241.5,183.5C 236.77,183.717 232.103,183.383 227.5,182.5C 227.611,181.883 227.944,181.383 228.5,181C 226.808,179.599 226.141,177.766 226.5,175.5 Z"/></g>
<g><path style="opacity:1" fill="#bab9cd" d="M 197.5,180.5 C 190.651,182.274 183.651,183.941 176.5,185.5C 174.097,185.448 171.764,185.781 169.5,186.5C 169.611,185.883 169.944,185.383 170.5,185C 174.719,184.827 178.719,183.827 182.5,182C 187.519,181.589 192.519,181.089 197.5,180.5 Z"/></g>
<g><path style="opacity:1" fill="#8883ad" d="M 222.5,166.5 C 223.167,165.833 223.833,165.167 224.5,164.5C 224.931,168.337 225.598,172.003 226.5,175.5C 226.141,177.766 226.808,179.599 228.5,181C 227.944,181.383 227.611,181.883 227.5,182.5C 227.5,185.833 227.5,189.167 227.5,192.5C 226.839,191.282 226.172,189.949 225.5,188.5C 224.83,190.291 224.163,191.958 223.5,193.5C 222.833,193.5 222.167,193.5 221.5,193.5C 221.414,192.504 221.748,191.671 222.5,191C 221.376,190.161 220.709,188.994 220.5,187.5C 221.815,185.157 221.815,182.823 220.5,180.5C 218.409,180.318 216.409,180.652 214.5,181.5C 213.479,182.002 213.312,182.668 214,183.5C 215.356,182.62 216.856,182.286 218.5,182.5C 218.5,183.5 218.5,184.5 218.5,185.5C 216.857,185.48 215.524,186.147 214.5,187.5C 212.619,184.264 209.952,182.264 206.5,181.5C 206.559,178.951 205.559,176.951 203.5,175.5C 205.095,174.566 206.761,174.566 208.5,175.5C 210.359,175.461 211.692,176.294 212.5,178C 214.387,178.78 216.054,178.613 217.5,177.5C 218.327,172.349 218.827,167.016 219,161.5C 219.93,166.799 220.597,172.133 221,177.5C 221.75,176.874 222.584,176.374 223.5,176C 222.549,172.943 222.216,169.777 222.5,166.5 Z"/></g>
<g><path style="opacity:1" fill="#6c6c92" d="M 243.5,171.5 C 243.403,179.191 243.737,186.858 244.5,194.5C 244.5,196.167 244.5,197.833 244.5,199.5C 244.167,199.5 243.833,199.5 243.5,199.5C 243.094,194.091 242.427,188.758 241.5,183.5C 237.979,182.834 234.313,182.167 230.5,181.5C 231.689,180.571 233.022,180.238 234.5,180.5C 236.5,180.5 238.5,180.5 240.5,180.5C 240.89,177.203 241.89,174.203 243.5,171.5 Z"/></g>
<g><path style="opacity:1" fill="#f1f2f6" d="M 227.5,182.5 C 232.103,183.383 236.77,183.717 241.5,183.5C 242.427,188.758 243.094,194.091 243.5,199.5C 243.5,200.167 243.167,200.5 242.5,200.5C 240.883,199.962 239.216,199.629 237.5,199.5C 237.5,198.5 237.5,197.5 237.5,196.5C 233.225,197.25 229.891,195.917 227.5,192.5C 227.5,189.167 227.5,185.833 227.5,182.5 Z"/></g>
<g><path style="opacity:1" fill="#c2c1d4" d="M 165.5,173.5 C 165.216,176.777 165.549,179.943 166.5,183C 165.027,183.71 164.36,184.876 164.5,186.5C 166.167,186.5 167.833,186.5 169.5,186.5C 167.735,187.461 165.735,187.795 163.5,187.5C 163.532,182.609 164.199,177.943 165.5,173.5 Z"/></g>
<g><path style="opacity:1" fill="#8986bd" d="M 248.5,172.5 C 248.405,175.697 249.072,178.697 250.5,181.5C 250.185,185.371 250.518,189.038 251.5,192.5C 251.5,193.167 251.5,193.833 251.5,194.5C 251.5,195.167 251.5,195.833 251.5,196.5C 250.482,192.87 248.649,192.537 246,195.5C 245.617,194.944 245.117,194.611 244.5,194.5C 243.737,186.858 243.403,179.191 243.5,171.5C 245.518,170.067 247.185,170.401 248.5,172.5 Z"/></g>
<g><path style="opacity:1" fill="#f0f0f5" d="M 277.5,193.5 C 270.13,195.528 262.797,197.528 255.5,199.5C 253.818,198.173 252.485,196.506 251.5,194.5C 251.5,193.833 251.5,193.167 251.5,192.5C 251.5,189.833 251.5,187.167 251.5,184.5C 261.449,184.525 270.116,187.525 277.5,193.5 Z"/></g>
<g><path style="opacity:1" fill="#f2f3f5" d="M 217.5,193.5 C 218.238,204.15 218.572,214.817 218.5,225.5C 213.833,225.5 209.167,225.5 204.5,225.5C 203.173,220.515 202.173,215.515 201.5,210.5C 200.696,202.988 200.03,195.321 199.5,187.5C 202.916,187.07 206.25,186.57 209.5,186C 212.632,187.965 215.299,190.465 217.5,193.5 Z"/></g>
<g><path style="opacity:1" fill="#4e496a" d="M 176.5,185.5 C 176.5,186.167 176.5,186.833 176.5,187.5C 175.5,187.5 174.5,187.5 173.5,187.5C 173.762,188.978 173.429,190.311 172.5,191.5C 170.902,190.515 169.235,190.349 167.5,191C 168.022,191.561 168.355,192.228 168.5,193C 167.815,195.795 167.315,198.628 167,201.5C 166.502,198.518 166.335,195.518 166.5,192.5C 164.517,192.843 163.183,192.176 162.5,190.5C 162.263,189.209 162.596,188.209 163.5,187.5C 165.735,187.795 167.735,187.461 169.5,186.5C 171.764,185.781 174.097,185.448 176.5,185.5 Z"/></g>
<g><path style="opacity:1" fill="#f6f6f7" d="M 198.5,211.5 C 199.301,213.042 199.634,214.708 199.5,216.5C 198.37,218.668 198.37,221.002 199.5,223.5C 199.182,224.647 198.516,225.481 197.5,226C 190.476,226.831 183.476,226.664 176.5,225.5C 177.025,224.808 177.692,224.308 178.5,224C 175.961,223.204 173.628,223.371 171.5,224.5C 170.527,222.052 170.194,219.385 170.5,216.5C 170.986,212.049 172.653,208.049 175.5,204.5C 179.118,208.868 181.451,208.201 182.5,202.5C 180.517,202.843 179.183,202.176 178.5,200.5C 179.189,197.811 180.856,196.144 183.5,195.5C 186.625,193.812 189.625,191.978 192.5,190C 194.134,189.506 195.801,189.34 197.5,189.5C 197.175,197.019 197.508,204.352 198.5,211.5 Z"/></g>
<g><path style="opacity:1" fill="#706c80" d="M 288.5,192.5 C 285.272,191.586 281.939,191.253 278.5,191.5C 278.5,190.833 278.5,190.167 278.5,189.5C 280.829,188.434 283.329,188.434 286,189.5C 287.812,189.507 289.312,188.84 290.5,187.5C 291.823,189.854 291.157,191.521 288.5,192.5 Z"/></g>
<g><path style="opacity:1" fill="#9896aa" d="M 250.5,181.5 C 260.078,183.544 269.411,186.21 278.5,189.5C 278.5,190.167 278.5,190.833 278.5,191.5C 278.5,192.167 278.5,192.833 278.5,193.5C 278.167,193.5 277.833,193.5 277.5,193.5C 270.116,187.525 261.449,184.525 251.5,184.5C 251.5,187.167 251.5,189.833 251.5,192.5C 250.518,189.038 250.185,185.371 250.5,181.5 Z"/></g>
<g><path style="opacity:1" fill="#696691" d="M 200.5,170.5 C 202.619,172.717 205.286,174.05 208.5,174.5C 208.5,174.833 208.5,175.167 208.5,175.5C 206.761,174.566 205.095,174.566 203.5,175.5C 205.559,176.951 206.559,178.951 206.5,181.5C 209.952,182.264 212.619,184.264 214.5,187.5C 215.524,186.147 216.857,185.48 218.5,185.5C 218.5,184.5 218.5,183.5 218.5,182.5C 216.856,182.286 215.356,182.62 214,183.5C 213.312,182.668 213.479,182.002 214.5,181.5C 216.409,180.652 218.409,180.318 220.5,180.5C 221.815,182.823 221.815,185.157 220.5,187.5C 220.709,188.994 221.376,190.161 222.5,191C 221.748,191.671 221.414,192.504 221.5,193.5C 221.393,202.013 221.393,210.347 221.5,218.5C 221.573,220.027 220.906,221.027 219.5,221.5C 219.666,214.159 219.5,206.826 219,199.5C 218.809,197.292 218.309,195.292 217.5,193.5C 215.299,190.465 212.632,187.965 209.5,186C 206.25,186.57 202.916,187.07 199.5,187.5C 199.167,187.5 198.833,187.5 198.5,187.5C 193.68,187.994 189.347,189.661 185.5,192.5C 185.5,191.167 184.833,190.5 183.5,190.5C 184.398,189.842 185.398,189.176 186.5,188.5C 183.232,187.513 179.898,187.18 176.5,187.5C 176.5,186.833 176.5,186.167 176.5,185.5C 183.651,183.941 190.651,182.274 197.5,180.5C 198.404,179.791 198.737,178.791 198.5,177.5C 198.369,176.761 198.536,176.094 199,175.5C 202.201,175.766 202.367,174.6 199.5,172C 200.056,171.617 200.389,171.117 200.5,170.5 Z"/></g>
<g><path style="opacity:1" fill="#f5f5f6" d="M 160.5,191.5 C 161.625,192.348 161.625,193.348 160.5,194.5C 160.065,205.529 159.399,216.529 158.5,227.5C 150.946,229.138 143.279,229.804 135.5,229.5C 132.428,229.817 129.428,229.484 126.5,228.5C 126.931,227.707 127.265,226.873 127.5,226C 126.098,217.216 125.098,208.382 124.5,199.5C 136.373,195.999 148.373,193.332 160.5,191.5 Z"/></g>
<g><path style="opacity:1" fill="#ebebf3" d="M 282.5,195.5 C 284.736,196.546 286.736,197.879 288.5,199.5C 278.446,202.043 268.779,205.376 259.5,209.5C 257.833,209.5 256.167,209.5 254.5,209.5C 254.5,207.5 254.5,205.5 254.5,203.5C 255.167,203.5 255.5,203.167 255.5,202.5C 264.337,199.533 273.337,197.199 282.5,195.5 Z"/></g>
<g><path style="opacity:1" fill="#e8e7ed" d="M 176.5,187.5 C 179.898,187.18 183.232,187.513 186.5,188.5C 185.398,189.176 184.398,189.842 183.5,190.5C 180.212,193.924 176.712,197.257 173,200.5C 172.797,203.802 171.464,206.469 169,208.5C 168.442,211.934 167.609,215.267 166.5,218.5C 165.659,220.379 165.325,222.379 165.5,224.5C 164.167,224.5 162.833,224.5 161.5,224.5C 161.192,214.78 161.526,205.113 162.5,195.5C 162.043,194.702 161.376,194.369 160.5,194.5C 161.625,193.348 161.625,192.348 160.5,191.5C 160.842,190.662 161.508,190.328 162.5,190.5C 163.183,192.176 164.517,192.843 166.5,192.5C 166.335,195.518 166.502,198.518 167,201.5C 167.315,198.628 167.815,195.795 168.5,193C 168.355,192.228 168.022,191.561 167.5,191C 169.235,190.349 170.902,190.515 172.5,191.5C 173.429,190.311 173.762,188.978 173.5,187.5C 174.5,187.5 175.5,187.5 176.5,187.5 Z"/></g>
<g><path style="opacity:1" fill="#5d5c99" d="M 229.5,214.5 C 229.5,216.5 229.5,218.5 229.5,220.5C 228.167,221.5 226.833,222.5 225.5,223.5C 225.5,219.5 225.5,215.5 225.5,211.5C 225.753,209.173 225.086,207.173 223.5,205.5C 223.709,204.914 224.043,204.414 224.5,204C 226.085,203.915 227.418,203.749 228.5,203.5C 227.15,202.05 225.484,201.383 223.5,201.5C 223.461,199.641 224.294,198.308 226,197.5C 228.096,198.715 227.929,199.549 225.5,200C 226.793,200.49 228.127,200.657 229.5,200.5C 228.142,204.493 227.142,209.326 226.5,215C 226.833,215.833 227.167,216.667 227.5,217.5C 228.176,216.398 228.842,215.398 229.5,214.5 Z"/></g>
<g><path style="opacity:1" fill="#696685" d="M 277.5,193.5 C 277.833,193.5 278.167,193.5 278.5,193.5C 280.483,193.157 281.817,193.824 282.5,195.5C 273.337,197.199 264.337,199.533 255.5,202.5C 254.624,202.631 253.957,202.298 253.5,201.5C 254.243,200.818 254.909,200.151 255.5,199.5C 262.797,197.528 270.13,195.528 277.5,193.5 Z"/></g>
<g><path style="opacity:1" fill="#6d7082" d="M 198.5,187.5 C 198.833,187.5 199.167,187.5 199.5,187.5C 200.03,195.321 200.696,202.988 201.5,210.5C 201.817,213.572 201.484,216.572 200.5,219.5C 199.614,218.675 199.281,217.675 199.5,216.5C 199.634,214.708 199.301,213.042 198.5,211.5C 198.5,203.5 198.5,195.5 198.5,187.5 Z"/></g>
<g><path style="opacity:1" fill="#6f6bb6" d="M 251.5,196.5 C 250.987,199.449 250.987,202.282 251.5,205C 249.146,206.378 249.146,207.878 251.5,209.5C 250.5,211.5 249.5,213.5 248.5,215.5C 248.315,211.72 247.648,207.72 246.5,203.5C 246.968,201.866 247.968,200.7 249.5,200C 248.234,199.691 247.067,199.191 246,198.5C 245.667,201.5 245.333,204.5 245,207.5C 243.39,204.872 243.223,202.205 244.5,199.5C 244.5,197.833 244.5,196.167 244.5,194.5C 245.117,194.611 245.617,194.944 246,195.5C 248.649,192.537 250.482,192.87 251.5,196.5 Z"/></g>
<g><path style="opacity:1" fill="#f1f0f2" d="M 120.5,191.5 C 119.887,194.009 119.22,196.509 118.5,199C 113.516,199.578 108.849,201.078 104.5,203.5C 105.333,203.833 106.167,204.167 107,204.5C 111.366,202.927 115.866,201.927 120.5,201.5C 120.963,211.183 121.629,220.85 122.5,230.5C 123.5,230.5 124.5,230.5 125.5,230.5C 125.5,230.833 125.5,231.167 125.5,231.5C 122.205,232.07 118.705,232.07 115,231.5C 111.902,231.771 108.902,232.438 106,233.5C 104.774,233.355 103.607,233.022 102.5,232.5C 101.476,233.853 100.143,234.52 98.5,234.5C 98.6432,228.831 98.6432,223.331 98.5,218C 100.099,208.729 103.432,200.229 108.5,192.5C 109.325,191.614 110.325,191.281 111.5,191.5C 111.5,190.167 111.5,188.833 111.5,187.5C 112.833,187.5 114.167,187.5 115.5,187.5C 115.446,184.033 116.946,181.366 120,179.5C 120.499,183.486 120.666,187.486 120.5,191.5 Z"/></g>
<g><path style="opacity:1" fill="#d6d7ee" d="M 231.5,204.5 C 230.549,203.081 230.216,201.415 230.5,199.5C 234.731,197.734 237.398,199.068 238.5,203.5C 235.941,203.198 233.607,203.532 231.5,204.5 Z"/></g>
<g><path style="opacity:1" fill="#8f90bc" d="M 278.5,191.5 C 281.939,191.253 285.272,191.586 288.5,192.5C 288.281,193.675 288.614,194.675 289.5,195.5C 291.714,193.076 292.714,193.743 292.5,197.5C 293.5,197.5 294.5,197.5 295.5,197.5C 295.5,198.5 295.5,199.5 295.5,200.5C 303.019,200.175 310.352,200.508 317.5,201.5C 312.786,201.173 308.12,201.507 303.5,202.5C 307.796,203.328 312.129,203.828 316.5,204C 313.949,204.002 311.949,204.836 310.5,206.5C 307.272,206.299 304.105,206.633 301,207.5C 297.076,202.963 292.576,202.297 287.5,205.5C 281.351,206.246 275.351,207.579 269.5,209.5C 268.791,208.596 267.791,208.263 266.5,208.5C 273.536,205.854 280.869,203.854 288.5,202.5C 288.5,201.5 288.5,200.5 288.5,199.5C 286.736,197.879 284.736,196.546 282.5,195.5C 281.817,193.824 280.483,193.157 278.5,193.5C 278.5,192.833 278.5,192.167 278.5,191.5 Z"/></g>
<g><path style="opacity:1" fill="#918d9d" d="M 178.5,200.5 C 179.183,202.176 180.517,202.843 182.5,202.5C 181.451,208.201 179.118,208.868 175.5,204.5C 176.659,203.26 177.659,201.926 178.5,200.5 Z"/></g>
<g><path style="opacity:1" fill="#a7adc1" d="M 217.5,193.5 C 218.309,195.292 218.809,197.292 219,199.5C 219.5,206.826 219.666,214.159 219.5,221.5C 219.768,223.099 219.434,224.432 218.5,225.5C 218.572,214.817 218.238,204.15 217.5,193.5 Z"/></g>
<g><path style="opacity:1" fill="#6d6d94" d="M 227.5,192.5 C 229.891,195.917 233.225,197.25 237.5,196.5C 237.5,197.5 237.5,198.5 237.5,199.5C 239.216,199.629 240.883,199.962 242.5,200.5C 241.543,204.157 242.377,207.49 245,210.5C 245.498,213.482 245.665,216.482 245.5,219.5C 245.167,219.5 244.833,219.5 244.5,219.5C 242.983,218.265 241.316,218.265 239.5,219.5C 238.438,218.575 238.438,217.575 239.5,216.5C 241.595,216.24 242.928,215.074 243.5,213C 242.528,210.889 241.695,208.722 241,206.5C 239.989,205.663 238.822,205.33 237.5,205.5C 235.435,205.483 233.435,205.15 231.5,204.5C 233.607,203.532 235.941,203.198 238.5,203.5C 237.398,199.068 234.731,197.734 230.5,199.5C 228.868,196.927 226.702,196.261 224,197.5C 223.51,196.207 223.343,194.873 223.5,193.5C 224.163,191.958 224.83,190.291 225.5,188.5C 226.172,189.949 226.839,191.282 227.5,192.5 Z"/></g>
<g><path style="opacity:1" fill="#6b6a96" d="M 288.5,199.5 C 288.5,200.5 288.5,201.5 288.5,202.5C 280.869,203.854 273.536,205.854 266.5,208.5C 264.421,208.971 262.421,209.637 260.5,210.5C 259.833,210.5 259.5,210.167 259.5,209.5C 268.779,205.376 278.446,202.043 288.5,199.5 Z"/></g>
<g><path style="opacity:1" fill="#7f7e9d" d="M 317.5,201.5 C 321.434,203.12 324.767,205.454 327.5,208.5C 327.5,209.5 327.5,210.5 327.5,211.5C 325.15,210.139 322.816,208.806 320.5,207.5C 317.021,206.686 313.688,206.353 310.5,206.5C 311.949,204.836 313.949,204.002 316.5,204C 312.129,203.828 307.796,203.328 303.5,202.5C 308.12,201.507 312.786,201.173 317.5,201.5 Z"/></g>
<g><path style="opacity:1" fill="#b9b9b9" d="M 18.5,178.5 C 18.2155,180.415 18.5489,182.081 19.5,183.5C 18.7343,188.82 18.5676,194.154 19,199.5C 20.9591,202.661 22.7924,205.995 24.5,209.5C 23.675,210.386 22.675,210.719 21.5,210.5C 21.6495,209.448 21.4828,208.448 21,207.5C 19.4878,206.743 18.1545,205.743 17,204.5C 16.1416,195.61 16.6416,186.943 18.5,178.5 Z"/></g>
<g><path style="opacity:1" fill="#cecfdb" d="M 198.5,187.5 C 198.5,195.5 198.5,203.5 198.5,211.5C 197.508,204.352 197.175,197.019 197.5,189.5C 195.801,189.34 194.134,189.506 192.5,190C 189.625,191.978 186.625,193.812 183.5,195.5C 183.285,193.821 183.952,192.821 185.5,192.5C 189.347,189.661 193.68,187.994 198.5,187.5 Z"/></g>
<g><path style="opacity:1" fill="#b1b2d8" d="M 231.5,204.5 C 233.435,205.15 235.435,205.483 237.5,205.5C 236.432,206.434 235.099,206.768 233.5,206.5C 234.97,209.318 235.97,212.318 236.5,215.5C 235.792,213.622 234.626,211.955 233,210.5C 232.685,208.414 232.185,206.414 231.5,204.5 Z"/></g>
<g><path style="opacity:1" fill="#807da5" d="M 287.5,205.5 C 290.713,205.19 293.713,205.523 296.5,206.5C 284.608,206.52 273.775,209.854 264,216.5C 261.833,219.787 261.333,223.12 262.5,226.5C 263.833,226.5 264.5,227.167 264.5,228.5C 262.801,228.527 261.467,229.194 260.5,230.5C 259.77,228.955 258.437,228.122 256.5,228C 255.748,227.329 255.414,226.496 255.5,225.5C 256.906,221.063 259.239,217.063 262.5,213.5C 264.85,212.139 267.184,210.806 269.5,209.5C 275.351,207.579 281.351,206.246 287.5,205.5 Z"/></g>
<g><path style="opacity:1" fill="#f3f3f5" d="M 296.5,206.5 C 295.665,207.943 294.332,208.943 292.5,209.5C 293,209.833 293.5,210.167 294,210.5C 301.216,208.177 308.549,207.843 316,209.5C 317.986,209.431 319.486,208.765 320.5,207.5C 322.816,208.806 325.15,210.139 327.5,211.5C 327.325,213.621 327.659,215.621 328.5,217.5C 328.5,219.833 328.5,222.167 328.5,224.5C 324.508,224.239 320.674,224.906 317,226.5C 313.138,224.509 309.304,224.175 305.5,225.5C 291.545,224.368 277.545,224.202 263.5,225C 262.944,225.383 262.611,225.883 262.5,226.5C 261.333,223.12 261.833,219.787 264,216.5C 273.775,209.854 284.608,206.52 296.5,206.5 Z"/></g>
<g><path style="opacity:1" fill="#5d5a79" d="M 310.5,206.5 C 313.688,206.353 317.021,206.686 320.5,207.5C 319.486,208.765 317.986,209.431 316,209.5C 308.549,207.843 301.216,208.177 294,210.5C 293.5,210.167 293,209.833 292.5,209.5C 294.332,208.943 295.665,207.943 296.5,206.5C 293.713,205.523 290.713,205.19 287.5,205.5C 292.576,202.297 297.076,202.963 301,207.5C 304.105,206.633 307.272,206.299 310.5,206.5 Z"/></g>
<g><path style="opacity:1" fill="#76757e" d="M 137.5,164.5 C 138.376,164.369 139.043,164.702 139.5,165.5C 137.597,167.562 135.263,168.896 132.5,169.5C 135.572,169.479 138.572,169.813 141.5,170.5C 138.275,171.237 134.941,171.903 131.5,172.5C 131.12,171.867 130.787,171.2 130.5,170.5C 124.728,172.857 122.061,176.857 122.5,182.5C 122.5,183.5 122.5,184.5 122.5,185.5C 122.975,188.082 122.308,190.082 120.5,191.5C 120.666,187.486 120.499,183.486 120,179.5C 116.946,181.366 115.446,184.033 115.5,187.5C 114.167,187.5 112.833,187.5 111.5,187.5C 111.5,188.833 111.5,190.167 111.5,191.5C 110.325,191.281 109.325,191.614 108.5,192.5C 103.432,200.229 100.099,208.729 98.5,218C 98.6432,223.331 98.6432,228.831 98.5,234.5C 100.143,234.52 101.476,233.853 102.5,232.5C 103.607,233.022 104.774,233.355 106,233.5C 108.902,232.438 111.902,231.771 115,231.5C 118.705,232.07 122.205,232.07 125.5,231.5C 126.391,232.261 127.058,233.261 127.5,234.5C 126.167,235.833 126.167,237.167 127.5,238.5C 125.036,241.159 122.203,241.826 119,240.5C 118.536,241.094 118.369,241.761 118.5,242.5C 117.092,239.043 118.425,237.376 122.5,237.5C 122.5,236.5 122.5,235.5 122.5,234.5C 116.916,234.255 111.583,234.922 106.5,236.5C 102.894,236.211 99.3936,236.544 96,237.5C 95.805,236.181 95.9717,234.847 96.5,233.5C 96.301,225.026 97.301,216.693 99.5,208.5C 99.1667,207.833 98.8333,207.167 98.5,206.5C 90.7236,209.389 82.7236,211.389 74.5,212.5C 74.5,211.833 74.5,211.167 74.5,210.5C 83.5134,209.383 92.1801,207.05 100.5,203.5C 101.371,200.436 102.538,197.436 104,194.5C 109.751,187.364 115.751,180.364 122,173.5C 126.785,169.857 131.951,166.857 137.5,164.5 Z"/></g>
<g><path style="opacity:1" fill="#eaeff6" d="M 237.5,205.5 C 238.822,205.33 239.989,205.663 241,206.5C 241.695,208.722 242.528,210.889 243.5,213C 242.928,215.074 241.595,216.24 239.5,216.5C 238.391,216.443 237.391,216.11 236.5,215.5C 235.97,212.318 234.97,209.318 233.5,206.5C 235.099,206.768 236.432,206.434 237.5,205.5 Z"/></g>
<g><path style="opacity:1" fill="#7877b3" d="M 221.5,193.5 C 222.167,193.5 222.833,193.5 223.5,193.5C 223.343,194.873 223.51,196.207 224,197.5C 226.702,196.261 228.868,196.927 230.5,199.5C 230.216,201.415 230.549,203.081 231.5,204.5C 232.185,206.414 232.685,208.414 233,210.5C 234.626,211.955 235.792,213.622 236.5,215.5C 236.819,217.75 236.319,219.75 235,221.5C 234.79,219.942 234.29,218.609 233.5,217.5C 232.326,216.486 231.66,215.153 231.5,213.5C 230.377,212.243 229.711,212.576 229.5,214.5C 228.842,215.398 228.176,216.398 227.5,217.5C 227.167,216.667 226.833,215.833 226.5,215C 227.142,209.326 228.142,204.493 229.5,200.5C 228.127,200.657 226.793,200.49 225.5,200C 227.929,199.549 228.096,198.715 226,197.5C 224.294,198.308 223.461,199.641 223.5,201.5C 225.484,201.383 227.15,202.05 228.5,203.5C 227.418,203.749 226.085,203.915 224.5,204C 224.043,204.414 223.709,204.914 223.5,205.5C 225.086,207.173 225.753,209.173 225.5,211.5C 223.797,210.34 223.131,211.007 223.5,213.5C 222.833,215.167 222.167,216.833 221.5,218.5C 221.393,210.347 221.393,202.013 221.5,193.5 Z"/></g>
<g><path style="opacity:1" fill="#8e8c99" d="M 122.5,185.5 C 123.88,185.962 124.547,186.962 124.5,188.5C 122.963,191.866 123.63,194.533 126.5,196.5C 125.602,197.158 124.602,197.824 123.5,198.5C 123.624,199.107 123.957,199.44 124.5,199.5C 125.098,208.382 126.098,217.216 127.5,226C 127.265,226.873 126.931,227.707 126.5,228.5C 129.428,229.484 132.428,229.817 135.5,229.5C 135.5,229.833 135.5,230.167 135.5,230.5C 132.167,230.5 128.833,230.5 125.5,230.5C 124.5,230.5 123.5,230.5 122.5,230.5C 121.629,220.85 120.963,211.183 120.5,201.5C 115.866,201.927 111.366,202.927 107,204.5C 106.167,204.167 105.333,203.833 104.5,203.5C 108.849,201.078 113.516,199.578 118.5,199C 119.22,196.509 119.887,194.009 120.5,191.5C 122.308,190.082 122.975,188.082 122.5,185.5 Z"/></g>
<g><path style="opacity:1" fill="#ebeaf3" d="M 266.5,208.5 C 267.791,208.263 268.791,208.596 269.5,209.5C 267.184,210.806 264.85,212.139 262.5,213.5C 259.239,217.063 256.906,221.063 255.5,225.5C 255.5,224.167 255.5,222.833 255.5,221.5C 255.756,219.208 255.423,217.041 254.5,215C 256.229,213.052 258.229,211.552 260.5,210.5C 262.421,209.637 264.421,208.971 266.5,208.5 Z"/></g>
<g><path style="opacity:1" fill="#5d5a6b" d="M 183.5,190.5 C 184.833,190.5 185.5,191.167 185.5,192.5C 183.952,192.821 183.285,193.821 183.5,195.5C 180.856,196.144 179.189,197.811 178.5,200.5C 177.659,201.926 176.659,203.26 175.5,204.5C 172.653,208.049 170.986,212.049 170.5,216.5C 168.801,216.527 167.467,217.194 166.5,218.5C 167.609,215.267 168.442,211.934 169,208.5C 171.464,206.469 172.797,203.802 173,200.5C 176.712,197.257 180.212,193.924 183.5,190.5 Z"/></g>
<g><path style="opacity:1" fill="#5e5d69" d="M 327.5,211.5 C 328.496,211.414 329.329,211.748 330,212.5C 330.499,216.152 330.665,219.818 330.5,223.5C 330.631,224.239 330.464,224.906 330,225.5C 329.817,222.635 329.317,219.969 328.5,217.5C 327.659,215.621 327.325,213.621 327.5,211.5 Z"/></g>
<g><path style="opacity:1" fill="#c5c5c5" d="M 51.5,215.5 C 47.6877,216.324 43.6877,216.824 39.5,217C 42.8168,217.498 46.1501,217.665 49.5,217.5C 40.7632,219.419 32.7632,217.753 25.5,212.5C 26,212.167 26.5,211.833 27,211.5C 34.9831,213.902 43.1498,215.235 51.5,215.5 Z"/></g>
<g><path style="opacity:1" fill="#8480c4" d="M 251.5,194.5 C 252.485,196.506 253.818,198.173 255.5,199.5C 254.909,200.151 254.243,200.818 253.5,201.5C 253.957,202.298 254.624,202.631 255.5,202.5C 255.5,203.167 255.167,203.5 254.5,203.5C 252.875,206.65 252.542,209.983 253.5,213.5C 252.329,215.169 250.996,216.669 249.5,218C 249.645,218.772 249.978,219.439 250.5,220C 248.919,220.707 247.419,221.54 246,222.5C 245.517,221.552 245.351,220.552 245.5,219.5C 245.665,216.482 245.498,213.482 245,210.5C 242.377,207.49 241.543,204.157 242.5,200.5C 243.167,200.5 243.5,200.167 243.5,199.5C 243.833,199.5 244.167,199.5 244.5,199.5C 243.223,202.205 243.39,204.872 245,207.5C 245.333,204.5 245.667,201.5 246,198.5C 247.067,199.191 248.234,199.691 249.5,200C 247.968,200.7 246.968,201.866 246.5,203.5C 247.648,207.72 248.315,211.72 248.5,215.5C 249.5,213.5 250.5,211.5 251.5,209.5C 249.146,207.878 249.146,206.378 251.5,205C 250.987,202.282 250.987,199.449 251.5,196.5C 251.5,195.833 251.5,195.167 251.5,194.5 Z"/></g>
<g><path style="opacity:1" fill="#929294" d="M 74.5,210.5 C 74.5,211.167 74.5,211.833 74.5,212.5C 73.5,212.5 72.5,212.5 71.5,212.5C 71.5,213.5 71.5,214.5 71.5,215.5C 67.6105,216.13 63.7771,216.13 60,215.5C 56.7242,217.227 53.2242,217.894 49.5,217.5C 46.1501,217.665 42.8168,217.498 39.5,217C 43.6877,216.824 47.6877,216.324 51.5,215.5C 59.3706,214.339 67.0373,212.672 74.5,210.5 Z"/></g>
<g><path style="opacity:1" fill="#c0c8eb" d="M 225.5,211.5 C 225.5,215.5 225.5,219.5 225.5,223.5C 225.5,224.833 224.833,225.5 223.5,225.5C 223.5,221.5 223.5,217.5 223.5,213.5C 223.131,211.007 223.797,210.34 225.5,211.5 Z"/></g>
<g><path style="opacity:1" fill="#a09fba" d="M 201.5,210.5 C 202.173,215.515 203.173,220.515 204.5,225.5C 200.302,226.875 195.969,227.542 191.5,227.5C 187.226,227.783 183.059,227.783 179,227.5C 177.78,228.388 176.447,229.055 175,229.5C 165.115,229.016 165.281,227.516 175.5,225C 174.207,224.51 172.873,224.343 171.5,224.5C 173.628,223.371 175.961,223.204 178.5,224C 177.692,224.308 177.025,224.808 176.5,225.5C 183.476,226.664 190.476,226.831 197.5,226C 198.516,225.481 199.182,224.647 199.5,223.5C 198.37,221.002 198.37,218.668 199.5,216.5C 199.281,217.675 199.614,218.675 200.5,219.5C 201.484,216.572 201.817,213.572 201.5,210.5 Z"/></g>
<g><path style="opacity:1" fill="#c1c0cd" d="M 327.5,208.5 C 328.794,209.29 329.961,210.29 331,211.5C 331.444,216.54 332.111,221.207 333,225.5C 335.041,224.577 337.208,224.244 339.5,224.5C 337.095,225.768 334.428,226.435 331.5,226.5C 331.737,225.209 331.404,224.209 330.5,223.5C 330.665,219.818 330.499,216.152 330,212.5C 329.329,211.748 328.496,211.414 327.5,211.5C 327.5,210.5 327.5,209.5 327.5,208.5 Z"/></g>
<g><path style="opacity:1" fill="#9292c7" d="M 254.5,203.5 C 254.5,205.5 254.5,207.5 254.5,209.5C 256.167,209.5 257.833,209.5 259.5,209.5C 259.5,210.167 259.833,210.5 260.5,210.5C 258.229,211.552 256.229,213.052 254.5,215C 255.423,217.041 255.756,219.208 255.5,221.5C 254.842,220.602 254.176,219.602 253.5,218.5C 253.39,220.098 253.057,221.765 252.5,223.5C 250.993,224.739 249.826,224.405 249,222.5C 247.331,223.846 246.164,225.513 245.5,227.5C 241.571,228.412 237.571,228.412 233.5,227.5C 232.172,225.207 230.839,222.873 229.5,220.5C 229.5,218.5 229.5,216.5 229.5,214.5C 229.711,212.576 230.377,212.243 231.5,213.5C 230.378,215.288 230.211,217.288 231,219.5C 232.813,220.609 233.646,219.942 233.5,217.5C 234.29,218.609 234.79,219.942 235,221.5C 236.319,219.75 236.819,217.75 236.5,215.5C 237.391,216.11 238.391,216.443 239.5,216.5C 238.438,217.575 238.438,218.575 239.5,219.5C 241.316,218.265 242.983,218.265 244.5,219.5C 244.833,219.5 245.167,219.5 245.5,219.5C 245.351,220.552 245.517,221.552 246,222.5C 247.419,221.54 248.919,220.707 250.5,220C 249.978,219.439 249.645,218.772 249.5,218C 250.996,216.669 252.329,215.169 253.5,213.5C 252.542,209.983 252.875,206.65 254.5,203.5 Z"/></g>
<g><path style="opacity:1" fill="#eef5fa" d="M 231.5,213.5 C 231.66,215.153 232.326,216.486 233.5,217.5C 233.646,219.942 232.813,220.609 231,219.5C 230.211,217.288 230.378,215.288 231.5,213.5 Z"/></g>
<g><path style="opacity:1" fill="#e3e8f9" d="M 244.5,219.5 C 244.5,221.5 244.5,223.5 244.5,225.5C 243.167,225.5 241.833,225.5 240.5,225.5C 239.599,221.759 240.932,219.759 244.5,219.5 Z"/></g>
<g><path style="opacity:1" fill="#c9c8d6" d="M 436.5,223.5 C 436.5,223.833 436.5,224.167 436.5,224.5C 428.583,224.217 420.75,224.883 413,226.5C 411.93,226.472 411.097,226.139 410.5,225.5C 419.026,223.664 427.693,222.997 436.5,223.5 Z"/></g>
<g><path style="opacity:1" fill="#62669d" d="M 223.5,213.5 C 223.5,217.5 223.5,221.5 223.5,225.5C 222.178,225.33 221.011,225.663 220,226.5C 220.821,230.162 220.654,233.828 219.5,237.5C 219.5,238.167 219.5,238.833 219.5,239.5C 218.521,242.625 218.187,245.958 218.5,249.5C 217.391,249.443 216.391,249.11 215.5,248.5C 215.783,244.581 216.116,240.915 216.5,237.5C 217.117,237.389 217.617,237.056 218,236.5C 218.497,234.19 218.663,231.857 218.5,229.5C 212.456,230.184 206.456,230.184 200.5,229.5C 200.167,229.5 199.833,229.5 199.5,229.5C 196.833,228.833 194.167,228.167 191.5,227.5C 195.969,227.542 200.302,226.875 204.5,225.5C 209.167,225.5 213.833,225.5 218.5,225.5C 219.434,224.432 219.768,223.099 219.5,221.5C 220.906,221.027 221.573,220.027 221.5,218.5C 222.167,216.833 222.833,215.167 223.5,213.5 Z"/></g>
<g><path style="opacity:1" fill="#a4a4ba" d="M 305.5,225.5 C 294.35,225.137 283.016,225.637 271.5,227C 290.338,227.168 309.004,227.668 327.5,228.5C 306.5,228.5 285.5,228.5 264.5,228.5C 264.5,227.167 263.833,226.5 262.5,226.5C 262.611,225.883 262.944,225.383 263.5,225C 277.545,224.202 291.545,224.368 305.5,225.5 Z"/></g>
<g><path style="opacity:1" fill="#6b687d" d="M 357.5,224.5 C 375.279,224.315 392.946,224.648 410.5,225.5C 411.097,226.139 411.93,226.472 413,226.5C 420.75,224.883 428.583,224.217 436.5,224.5C 436.5,225.5 436.5,226.5 436.5,227.5C 407.167,227.5 377.833,227.5 348.5,227.5C 346.369,226.686 344.036,226.186 341.5,226C 347.016,225.827 352.349,225.327 357.5,224.5 Z"/></g>
<g><path style="opacity:1" fill="#f7f7f8" d="M 264.5,228.5 C 285.5,228.5 306.5,228.5 327.5,228.5C 325.767,232.404 324.267,236.404 323,240.5C 321.615,241.551 320.615,242.884 320,244.5C 315.486,248.255 310.986,251.922 306.5,255.5C 304.885,256.154 303.218,256.654 301.5,257C 296.378,262.531 290.044,265.198 282.5,265C 280.981,263.649 279.648,262.149 278.5,260.5C 275.133,259.823 272.466,258.157 270.5,255.5C 269.577,251.341 267.744,247.675 265,244.5C 264.51,243.207 264.343,241.873 264.5,240.5C 262.901,240.768 261.568,240.434 260.5,239.5C 259.632,236.327 259.632,233.327 260.5,230.5C 261.467,229.194 262.801,228.527 264.5,228.5 Z"/></g>
<g><path style="opacity:1" fill="#746f8d" d="M 160.5,194.5 C 161.376,194.369 162.043,194.702 162.5,195.5C 161.526,205.113 161.192,214.78 161.5,224.5C 162.833,224.5 164.167,224.5 165.5,224.5C 165.325,222.379 165.659,220.379 166.5,218.5C 167.467,217.194 168.801,216.527 170.5,216.5C 170.194,219.385 170.527,222.052 171.5,224.5C 172.873,224.343 174.207,224.51 175.5,225C 165.281,227.516 165.115,229.016 175,229.5C 176.447,229.055 177.78,228.388 179,227.5C 183.059,227.783 187.226,227.783 191.5,227.5C 194.167,228.167 196.833,228.833 199.5,229.5C 190.134,229.372 180.8,229.872 171.5,231C 170.972,234.018 169.972,236.851 168.5,239.5C 170.775,242.293 171.109,245.293 169.5,248.5C 169.5,249.833 168.833,250.5 167.5,250.5C 167.415,248.071 166.415,246.071 164.5,244.5C 165.376,243.749 166.376,243.249 167.5,243C 165.127,240.36 163.793,237.193 163.5,233.5C 163.181,240.775 163.181,248.108 163.5,255.5C 161.827,249.823 160.494,243.823 159.5,237.5C 160.629,235.372 160.796,233.039 160,230.5C 157.287,232.13 154.287,233.13 151,233.5C 150.5,233.167 150,232.833 149.5,232.5C 151.766,231.686 154.1,231.186 156.5,231C 152.797,230.421 149.131,230.588 145.5,231.5C 142.375,230.521 139.042,230.187 135.5,230.5C 135.5,230.167 135.5,229.833 135.5,229.5C 143.279,229.804 150.946,229.138 158.5,227.5C 159.399,216.529 160.065,205.529 160.5,194.5 Z"/></g>
<g><path style="opacity:1" fill="#9a96af" d="M 135.5,230.5 C 139.042,230.187 142.375,230.521 145.5,231.5C 144.5,231.5 143.5,231.5 142.5,231.5C 142.371,233.216 142.038,234.883 141.5,236.5C 140.609,237.11 139.609,237.443 138.5,237.5C 138.611,236.883 138.944,236.383 139.5,236C 138.167,235.667 136.833,235.333 135.5,235C 136.728,233.51 136.728,232.01 135.5,230.5 Z"/></g>
<g><path style="opacity:1" fill="#696ec3" d="M 229.5,220.5 C 230.839,222.873 232.172,225.207 233.5,227.5C 233.167,228.167 232.833,228.833 232.5,229.5C 231.833,229.5 231.5,229.833 231.5,230.5C 230.042,230.579 228.708,231.079 227.5,232C 228.777,234.466 228.777,236.966 227.5,239.5C 226.686,237.234 226.186,234.9 226,232.5C 225.667,232.833 225.333,233.167 225,233.5C 224.667,236.833 224.333,240.167 224,243.5C 223,243.167 222,242.833 221,242.5C 220.802,240.618 220.302,238.952 219.5,237.5C 220.654,233.828 220.821,230.162 220,226.5C 221.011,225.663 222.178,225.33 223.5,225.5C 224.833,225.5 225.5,224.833 225.5,223.5C 226.833,222.5 228.167,221.5 229.5,220.5 Z"/></g>
<g><path style="opacity:1" fill="#f2f4f7" d="M 216.5,237.5 C 216.116,240.915 215.783,244.581 215.5,248.5C 214.731,252.243 214.731,256.076 215.5,260C 214.341,266.626 213.341,273.126 212.5,279.5C 211.549,280.919 211.216,282.585 211.5,284.5C 210.837,286.042 210.17,287.709 209.5,289.5C 206.806,270.192 204.473,250.859 202.5,231.5C 204.167,231.5 205.833,231.5 207.5,231.5C 207.5,232.5 207.5,233.5 207.5,234.5C 208.5,234.5 209.5,234.5 210.5,234.5C 210.5,233.167 210.5,231.833 210.5,230.5C 212.833,230.5 215.167,230.5 217.5,230.5C 217.326,232.861 216.993,235.194 216.5,237.5 Z"/></g>
<g><path style="opacity:1" fill="#c3c0d1" d="M 159.5,237.5 C 159.291,236.078 158.791,234.745 158,233.5C 156.667,236.167 155.333,236.167 154,233.5C 153.751,234.624 153.251,235.624 152.5,236.5C 150.345,235.095 148.179,233.762 146,232.5C 145.667,234.047 146.167,235.38 147.5,236.5C 145.599,237.231 143.599,237.231 141.5,236.5C 142.038,234.883 142.371,233.216 142.5,231.5C 143.5,231.5 144.5,231.5 145.5,231.5C 149.131,230.588 152.797,230.421 156.5,231C 154.1,231.186 151.766,231.686 149.5,232.5C 150,232.833 150.5,233.167 151,233.5C 154.287,233.13 157.287,232.13 160,230.5C 160.796,233.039 160.629,235.372 159.5,237.5 Z"/></g>
<g><path style="opacity:1" fill="#7a7981" d="M 83.5,235.5 C 86.0336,235.259 87.7002,236.259 88.5,238.5C 88.5,240.167 88.5,241.833 88.5,243.5C 87.325,243.719 86.325,243.386 85.5,242.5C 86.2458,241.264 86.5792,239.93 86.5,238.5C 84.7839,238.629 83.1172,238.962 81.5,239.5C 80.9423,238.21 79.9423,237.377 78.5,237C 80.3817,236.802 82.0484,236.302 83.5,235.5 Z"/></g>
<g><path style="opacity:1" fill="#8a86a1" d="M 136.5,238.5 C 135.791,239.404 134.791,239.737 133.5,239.5C 132.646,237.066 131.646,237.233 130.5,240C 129.833,240.667 129.167,240.667 128.5,240C 129.013,237.282 129.013,234.449 128.5,231.5C 133.443,231.288 134.11,232.288 130.5,234.5C 131.391,235.59 132.391,235.59 133.5,234.5C 134.057,236.332 135.057,237.665 136.5,238.5 Z"/></g>
<g><path style="opacity:1" fill="#5b5a67" d="M 76.5,239.5 C 75.1667,239.5 73.8333,239.5 72.5,239.5C 69.1456,237.887 66.1456,238.22 63.5,240.5C 62.8333,240.5 62.1667,240.5 61.5,240.5C 61.5,239.5 61.5,238.5 61.5,237.5C 66.9443,236.892 71.9443,237.558 76.5,239.5 Z"/></g>
<g><path style="opacity:1" fill="#a19fab" d="M 83.5,235.5 C 82.0484,236.302 80.3817,236.802 78.5,237C 79.9423,237.377 80.9423,238.21 81.5,239.5C 79.8333,239.5 78.1667,239.5 76.5,239.5C 71.9443,237.558 66.9443,236.892 61.5,237.5C 61.5,238.5 61.5,239.5 61.5,240.5C 60.5655,239.432 60.2322,238.099 60.5,236.5C 68.1912,236.597 75.8579,236.263 83.5,235.5 Z"/></g>
<g><path style="opacity:1" fill="#c0bfc6" d="M 96.5,233.5 C 95.9717,234.847 95.805,236.181 96,237.5C 99.3936,236.544 102.894,236.211 106.5,236.5C 106.737,237.791 106.404,238.791 105.5,239.5C 104.053,238.115 103.053,238.448 102.5,240.5C 101.883,240.389 101.383,240.056 101,239.5C 100.505,241.473 100.338,243.473 100.5,245.5C 99.8347,243.302 99.1681,240.969 98.5,238.5C 97.8933,238.624 97.56,238.957 97.5,239.5C 94.6085,238.597 91.6085,238.264 88.5,238.5C 87.7002,236.259 86.0336,235.259 83.5,235.5C 86.5,234.167 89.5,234.167 92.5,235.5C 94.0618,235.267 95.3951,234.6 96.5,233.5 Z"/></g>
<g><path style="opacity:1" fill="#302f37" d="M 92.5,235.5 C 92.3605,237.337 91.6939,237.67 90.5,236.5C 90.9569,235.702 91.6236,235.369 92.5,235.5 Z"/></g>
<g><path style="opacity:1" fill="#434248" d="M 105.5,239.5 C 104.71,240.609 104.21,241.942 104,243.5C 103.768,242.263 103.268,241.263 102.5,240.5C 103.053,238.448 104.053,238.115 105.5,239.5 Z"/></g>
<g><path style="opacity:1" fill="#5a576b" d="M 125.5,231.5 C 125.5,231.167 125.5,230.833 125.5,230.5C 128.833,230.5 132.167,230.5 135.5,230.5C 136.728,232.01 136.728,233.51 135.5,235C 136.833,235.333 138.167,235.667 139.5,236C 138.944,236.383 138.611,236.883 138.5,237.5C 137.833,237.833 137.167,238.167 136.5,238.5C 135.057,237.665 134.057,236.332 133.5,234.5C 132.391,235.59 131.391,235.59 130.5,234.5C 134.11,232.288 133.443,231.288 128.5,231.5C 129.013,234.449 129.013,237.282 128.5,240C 129.167,240.667 129.833,240.667 130.5,240C 131.646,237.233 132.646,237.066 133.5,239.5C 132.18,241.463 130.846,243.463 129.5,245.5C 128.778,245.918 128.278,246.584 128,247.5C 127.667,245.5 127.333,243.5 127,241.5C 125.329,243.276 123.496,243.61 121.5,242.5C 120.289,243.274 120.289,244.107 121.5,245C 120.906,245.464 120.239,245.631 119.5,245.5C 118.596,244.791 118.263,243.791 118.5,242.5C 118.369,241.761 118.536,241.094 119,240.5C 122.203,241.826 125.036,241.159 127.5,238.5C 126.167,237.167 126.167,235.833 127.5,234.5C 127.058,233.261 126.391,232.261 125.5,231.5 Z"/></g>
<g><path style="opacity:1" fill="#9e9ca4" d="M 72.5,239.5 C 72.5,240.5 72.5,241.5 72.5,242.5C 74.5273,242.338 76.5273,242.505 78.5,243C 79.731,244.183 79.731,245.349 78.5,246.5C 75.9717,244.126 72.9717,243.126 69.5,243.5C 69.5,242.5 69.5,241.5 69.5,240.5C 67.5,240.5 65.5,240.5 63.5,240.5C 66.1456,238.22 69.1456,237.887 72.5,239.5 Z"/></g>
<g><path style="opacity:1" fill="#7c81cc" d="M 231.5,230.5 C 231.294,235.657 231.961,240.657 233.5,245.5C 233.549,249.078 234.215,252.411 235.5,255.5C 233.315,260.518 231.982,260.685 231.5,256C 230.251,255.26 229.251,255.427 228.5,256.5C 227.596,255.791 227.263,254.791 227.5,253.5C 226.022,253.762 224.689,253.429 223.5,252.5C 224,252.167 224.5,251.833 225,251.5C 227.099,252.287 229.266,252.62 231.5,252.5C 232.116,247.95 230.949,243.95 228,240.5C 227.781,241.938 227.281,243.271 226.5,244.5C 221.421,248.169 219.087,246.502 219.5,239.5C 219.5,238.833 219.5,238.167 219.5,237.5C 220.302,238.952 220.802,240.618 221,242.5C 222,242.833 223,243.167 224,243.5C 224.333,240.167 224.667,236.833 225,233.5C 225.333,233.167 225.667,232.833 226,232.5C 226.186,234.9 226.686,237.234 227.5,239.5C 228.777,236.966 228.777,234.466 227.5,232C 228.708,231.079 230.042,230.579 231.5,230.5 Z"/></g>
<g><path style="opacity:1" fill="#b5b4bb" d="M 53.5,241.5 C 49.6643,240.622 45.6643,239.956 41.5,239.5C 40.3915,240.29 39.0581,240.79 37.5,241C 41.8206,241.499 46.1539,241.666 50.5,241.5C 40.6586,242.167 30.6586,242.833 20.5,243.5C 24.6439,245.177 24.4772,246.177 20,246.5C 17.9658,246.646 16.2991,245.98 15,244.5C 13.5557,246.155 11.7224,246.822 9.5,246.5C 9.5,245.5 9.5,244.5 9.5,243.5C 10.552,243.649 11.552,243.483 12.5,243C 9.83333,242.333 7.16667,241.667 4.5,241C 3.02838,237.448 4.36171,235.782 8.5,236C 25.1618,234.433 41.8285,234.267 58.5,235.5C 58.5,237.5 58.5,239.5 58.5,241.5C 56.8333,241.5 55.1667,241.5 53.5,241.5 Z"/></g>
<g><path style="opacity:1" fill="#7f7c87" d="M 41.5,239.5 C 45.6643,239.956 49.6643,240.622 53.5,241.5C 52.5,241.5 51.5,241.5 50.5,241.5C 46.1539,241.666 41.8206,241.499 37.5,241C 39.0581,240.79 40.3915,240.29 41.5,239.5 Z"/></g>
<g><path style="opacity:1" fill="#f1f1f6" d="M 41.5,239.5 C 32.0534,239.802 22.72,240.802 13.5,242.5C 13.33,241.178 13.6634,240.011 14.5,239C 24.0961,237.188 33.7628,236.521 43.5,237C 42.6195,237.708 41.9528,238.542 41.5,239.5 Z"/></g>
<g><path style="opacity:1" fill="#8482ce" d="M 255.5,221.5 C 255.5,222.833 255.5,224.167 255.5,225.5C 255.414,226.496 255.748,227.329 256.5,228C 258.437,228.122 259.77,228.955 260.5,230.5C 259.632,233.327 259.632,236.327 260.5,239.5C 259.833,239.5 259.167,239.5 258.5,239.5C 257.5,239.5 256.5,239.5 255.5,239.5C 255.666,245.842 255.5,252.175 255,258.5C 253.028,259.305 251.528,260.639 250.5,262.5C 249.108,268.756 248.441,275.089 248.5,281.5C 247.167,285.167 247.167,288.833 248.5,292.5C 248.5,293.833 248.5,295.167 248.5,296.5C 245.013,297.445 243.68,299.778 244.5,303.5C 244.167,303.5 243.833,303.5 243.5,303.5C 243.167,303.5 242.833,303.5 242.5,303.5C 242.5,301.833 242.5,300.167 242.5,298.5C 244.118,297.549 245.451,296.216 246.5,294.5C 244.797,287.831 244.63,281.164 246,274.5C 246.889,275.888 247.389,275.722 247.5,274C 247.137,270.274 247.137,266.441 247.5,262.5C 247.086,260.081 246.086,258.081 244.5,256.5C 244.948,249.182 244.282,241.848 242.5,234.5C 242.759,231.72 243.759,229.386 245.5,227.5C 246.164,225.513 247.331,223.846 249,222.5C 249.826,224.405 250.993,224.739 252.5,223.5C 253.057,221.765 253.39,220.098 253.5,218.5C 254.176,219.602 254.842,220.602 255.5,221.5 Z"/></g>
<g><path style="opacity:1" fill="#888594" d="M 129.5,245.5 C 130.094,252.175 130.76,258.842 131.5,265.5C 131.685,269.066 131.019,272.399 129.5,275.5C 130.095,278.14 130.428,280.807 130.5,283.5C 130.768,285.099 130.434,286.432 129.5,287.5C 128.31,280.175 127.31,272.509 126.5,264.5C 127.437,261.245 127.77,258.078 127.5,255C 124.558,253.043 123.225,250.21 123.5,246.5C 121.901,246.768 120.568,246.434 119.5,245.5C 120.239,245.631 120.906,245.464 121.5,245C 120.289,244.107 120.289,243.274 121.5,242.5C 123.496,243.61 125.329,243.276 127,241.5C 127.333,243.5 127.667,245.5 128,247.5C 128.278,246.584 128.778,245.918 129.5,245.5 Z"/></g>
<g><path style="opacity:1" fill="#ebeff6" d="M 232.5,229.5 C 234.527,229.338 236.527,229.505 238.5,230C 242.783,238.91 243.449,248.076 240.5,257.5C 238.058,257.646 237.391,256.813 238.5,255C 236.521,251.893 234.854,248.726 233.5,245.5C 231.961,240.657 231.294,235.657 231.5,230.5C 231.5,229.833 231.833,229.5 232.5,229.5 Z"/></g>
<g><path style="opacity:1" fill="#76767a" d="M 100.5,245.5 C 100.552,249.198 100.886,252.865 101.5,256.5C 99.9724,255.198 98.9724,253.531 98.5,251.5C 98.6054,247.452 98.2721,243.452 97.5,239.5C 97.56,238.957 97.8933,238.624 98.5,238.5C 99.1681,240.969 99.8347,243.302 100.5,245.5 Z"/></g>
<g><path style="opacity:1" fill="#6a6ea3" d="M 233.5,227.5 C 237.571,228.412 241.571,228.412 245.5,227.5C 243.759,229.386 242.759,231.72 242.5,234.5C 244.282,241.848 244.948,249.182 244.5,256.5C 243.791,257.404 242.791,257.737 241.5,257.5C 241.31,262.37 240.644,267.036 239.5,271.5C 239.74,268.421 239.407,265.421 238.5,262.5C 240.005,261.158 240.672,259.492 240.5,257.5C 243.449,248.076 242.783,238.91 238.5,230C 236.527,229.505 234.527,229.338 232.5,229.5C 232.833,228.833 233.167,228.167 233.5,227.5 Z"/></g>
<g><path style="opacity:1" fill="#f2f2f5" d="M 267.5,255.5 C 271.025,259.183 275.025,262.35 279.5,265C 280.337,266.011 280.67,267.178 280.5,268.5C 278.167,268.5 275.833,268.5 273.5,268.5C 272.883,268.611 272.383,268.944 272,269.5C 269.834,267.879 267.334,267.045 264.5,267C 261.31,264.737 258.977,261.904 257.5,258.5C 257.132,255.467 257.798,252.8 259.5,250.5C 259.843,248.775 260.843,248.275 262.5,249C 263.894,251.429 265.56,253.596 267.5,255.5 Z"/></g>
<g><path style="opacity:1" fill="#8f8eb4" d="M 258.5,239.5 C 259.167,239.5 259.833,239.5 260.5,239.5C 261.568,240.434 262.901,240.768 264.5,240.5C 264.343,241.873 264.51,243.207 265,244.5C 267.744,247.675 269.577,251.341 270.5,255.5C 269.348,254.375 268.348,254.375 267.5,255.5C 265.56,253.596 263.894,251.429 262.5,249C 260.843,248.275 259.843,248.775 259.5,250.5C 258.503,250.53 257.836,250.03 257.5,249C 258.367,245.895 258.701,242.728 258.5,239.5 Z"/></g>
<g><path style="opacity:1" fill="#7a7980" d="M 163.5,255.5 C 166.166,257.172 166.833,259.506 165.5,262.5C 164.914,262.291 164.414,261.957 164,261.5C 163.505,259.527 163.338,257.527 163.5,255.5 Z"/></g>
<g><path style="opacity:1" fill="#cdd9f3" d="M 233.5,245.5 C 234.854,248.726 236.521,251.893 238.5,255C 237.391,256.813 238.058,257.646 240.5,257.5C 240.672,259.492 240.005,261.158 238.5,262.5C 239.407,265.421 239.74,268.421 239.5,271.5C 239.5,271.833 239.5,272.167 239.5,272.5C 237.728,269.839 236.395,266.839 235.5,263.5C 235.722,261.945 236.389,260.611 237.5,259.5C 237.006,257.974 236.339,256.641 235.5,255.5C 234.215,252.411 233.549,249.078 233.5,245.5 Z"/></g>
<g><path style="opacity:1" fill="#69696c" d="M 110.5,267.5 C 110.179,269.048 109.179,269.715 107.5,269.5C 107.483,267.435 107.15,265.435 106.5,263.5C 105.551,260.792 105.551,258.126 106.5,255.5C 107.558,259.702 108.891,263.702 110.5,267.5 Z"/></g>
<g><path style="opacity:1" fill="#bfbdd0" d="M 257.5,258.5 C 258.977,261.904 261.31,264.737 264.5,267C 267.334,267.045 269.834,267.879 272,269.5C 272.383,268.944 272.883,268.611 273.5,268.5C 273.582,270.252 272.749,271.252 271,271.5C 267.077,270.228 263.244,268.728 259.5,267C 258.915,265.698 258.249,264.531 257.5,263.5C 257.5,261.833 257.5,260.167 257.5,258.5 Z"/></g>
<g><path style="opacity:1" fill="#6d6d6f" d="M 106.5,272.5 C 104.674,270.853 103.34,268.853 102.5,266.5C 102.369,265.624 102.702,264.957 103.5,264.5C 104.104,267.263 105.438,269.597 107.5,271.5C 107.376,272.107 107.043,272.44 106.5,272.5 Z"/></g>
<g><path style="opacity:1" fill="#6b6fc2" d="M 219.5,239.5 C 219.087,246.502 221.421,248.169 226.5,244.5C 227.281,243.271 227.781,241.938 228,240.5C 230.949,243.95 232.116,247.95 231.5,252.5C 229.266,252.62 227.099,252.287 225,251.5C 224.5,251.833 224,252.167 223.5,252.5C 224.689,253.429 226.022,253.762 227.5,253.5C 227.263,254.791 227.596,255.791 228.5,256.5C 229.372,257.612 229.372,258.946 228.5,260.5C 228.747,261.713 229.414,262.38 230.5,262.5C 231.377,266.322 232.044,270.322 232.5,274.5C 232.64,276.03 233.307,277.03 234.5,277.5C 235.268,276.737 235.768,275.737 236,274.5C 238.552,277.194 239.719,276.527 239.5,272.5C 239.5,272.167 239.5,271.833 239.5,271.5C 240.644,267.036 241.31,262.37 241.5,257.5C 242.791,257.737 243.791,257.404 244.5,256.5C 246.086,258.081 247.086,260.081 247.5,262.5C 247.137,266.441 247.137,270.274 247.5,274C 247.389,275.722 246.889,275.888 246,274.5C 244.63,281.164 244.797,287.831 246.5,294.5C 245.451,296.216 244.118,297.549 242.5,298.5C 240.833,298.5 239.167,298.5 237.5,298.5C 237.507,295.962 237.841,293.462 238.5,291C 238.291,289.129 237.291,287.962 235.5,287.5C 234.702,287.957 234.369,288.624 234.5,289.5C 232.801,289.527 231.467,290.194 230.5,291.5C 229.969,286.955 228.802,282.622 227,278.5C 226.536,279.094 226.369,279.761 226.5,280.5C 225.833,279.167 225.167,277.833 224.5,276.5C 224.657,275.127 224.49,273.793 224,272.5C 222.418,271.04 221.085,269.373 220,267.5C 218.605,266.185 217.605,266.519 217,268.5C 216.288,266.305 216.955,264.638 219,263.5C 221.362,264.363 222.862,266.03 223.5,268.5C 224.809,265.348 224.476,262.348 222.5,259.5C 221.311,258.571 219.978,258.238 218.5,258.5C 217.905,255.346 217.905,252.346 218.5,249.5C 218.187,245.958 218.521,242.625 219.5,239.5 Z"/></g>
<g><path style="opacity:1" fill="#8d98cf" d="M 228.5,256.5 C 229.251,255.427 230.251,255.26 231.5,256C 231.982,260.685 233.315,260.518 235.5,255.5C 236.339,256.641 237.006,257.974 237.5,259.5C 236.389,260.611 235.722,261.945 235.5,263.5C 236.395,266.839 237.728,269.839 239.5,272.5C 239.719,276.527 238.552,277.194 236,274.5C 235.768,275.737 235.268,276.737 234.5,277.5C 235.006,271.535 234.006,265.868 231.5,260.5C 230.702,260.957 230.369,261.624 230.5,262.5C 229.414,262.38 228.747,261.713 228.5,260.5C 229.372,258.946 229.372,257.612 228.5,256.5 Z"/></g>
<g><path style="opacity:1" fill="#76757e" d="M 169.5,248.5 C 172.501,250.283 174.335,252.95 175,256.5C 177.333,258.833 179.667,261.167 182,263.5C 182.333,264.5 182.667,265.5 183,266.5C 184.461,265.117 185.294,265.451 185.5,267.5C 184.209,267.263 183.209,267.596 182.5,268.5C 180.167,268.5 177.833,268.5 175.5,268.5C 175.5,267.167 176.167,266.5 177.5,266.5C 178.5,266.5 179.5,266.5 180.5,266.5C 180.719,265.325 180.386,264.325 179.5,263.5C 178.109,264.645 176.776,264.645 175.5,263.5C 177.011,261.162 176.677,260.496 174.5,261.5C 171.415,258.335 169.082,254.669 167.5,250.5C 168.833,250.5 169.5,249.833 169.5,248.5 Z"/></g>
<g><path style="opacity:1" fill="#a09dac" d="M 182.5,268.5 C 183.209,267.596 184.209,267.263 185.5,267.5C 186.721,268.465 188.054,268.298 189.5,267C 188.09,266.632 187.09,265.799 186.5,264.5C 188.396,263.534 190.396,263.201 192.5,263.5C 192.5,266.5 192.5,269.5 192.5,272.5C 190.143,272.663 187.81,272.497 185.5,272C 184.186,271.015 183.186,269.848 182.5,268.5 Z"/></g>
<g><path style="opacity:1" fill="#c0ccf4" d="M 234.5,277.5 C 233.307,277.03 232.64,276.03 232.5,274.5C 232.044,270.322 231.377,266.322 230.5,262.5C 230.369,261.624 230.702,260.957 231.5,260.5C 234.006,265.868 235.006,271.535 234.5,277.5 Z"/></g>
<g><path style="opacity:1" fill="#b1b0de" d="M 258.5,239.5 C 258.701,242.728 258.367,245.895 257.5,249C 257.836,250.03 258.503,250.53 259.5,250.5C 257.798,252.8 257.132,255.467 257.5,258.5C 257.5,260.167 257.5,261.833 257.5,263.5C 256.662,263.842 256.328,264.508 256.5,265.5C 255.735,264.34 254.735,263.34 253.5,262.5C 251.691,268.91 250.025,275.244 248.5,281.5C 248.441,275.089 249.108,268.756 250.5,262.5C 251.528,260.639 253.028,259.305 255,258.5C 255.5,252.175 255.666,245.842 255.5,239.5C 256.5,239.5 257.5,239.5 258.5,239.5 Z"/></g>
<g><path style="opacity:1" fill="#c2c1c5" d="M 98.5,251.5 C 98.9724,253.531 99.9724,255.198 101.5,256.5C 100.275,258.449 100.942,259.782 103.5,260.5C 102.477,262.895 103.477,263.895 106.5,263.5C 107.15,265.435 107.483,267.435 107.5,269.5C 109.179,269.715 110.179,269.048 110.5,267.5C 112.074,269.102 112.741,271.102 112.5,273.5C 110.901,273.232 109.568,273.566 108.5,274.5C 107.5,274.167 106.833,273.5 106.5,272.5C 107.043,272.44 107.376,272.107 107.5,271.5C 105.438,269.597 104.104,267.263 103.5,264.5C 102.702,264.957 102.369,265.624 102.5,266.5C 101.262,264.786 100.595,262.786 100.5,260.5C 97.8205,260.327 95.4872,259.327 93.5,257.5C 95.0026,256.948 96.6693,256.948 98.5,257.5C 98.5,255.5 98.5,253.5 98.5,251.5 Z"/></g>
<g><path style="opacity:1" fill="#797788" d="M 328.5,217.5 C 329.317,219.969 329.817,222.635 330,225.5C 330.464,224.906 330.631,224.239 330.5,223.5C 331.404,224.209 331.737,225.209 331.5,226.5C 334.428,226.435 337.095,225.768 339.5,224.5C 345.5,224.5 351.5,224.5 357.5,224.5C 352.349,225.327 347.016,225.827 341.5,226C 344.036,226.186 346.369,226.686 348.5,227.5C 342.491,227.334 336.491,227.501 330.5,228C 327.335,240.832 320.001,250.498 308.5,257C 302.243,260.466 295.91,263.966 289.5,267.5C 290.348,269.409 290.682,271.409 290.5,273.5C 291.833,273.5 293.167,273.5 294.5,273.5C 294.662,275.527 294.495,277.527 294,279.5C 290.651,283.016 287.151,286.349 283.5,289.5C 278.529,292.574 273.196,294.074 267.5,294C 272.792,292.794 277.625,290.628 282,287.5C 282.727,284.045 284.893,282.379 288.5,282.5C 291.615,277.056 290.281,272.889 284.5,270C 278.486,272.155 272.153,272.822 265.5,272C 261.25,271.24 258.25,269.073 256.5,265.5C 256.328,264.508 256.662,263.842 257.5,263.5C 258.249,264.531 258.915,265.698 259.5,267C 263.244,268.728 267.077,270.228 271,271.5C 272.749,271.252 273.582,270.252 273.5,268.5C 275.833,268.5 278.167,268.5 280.5,268.5C 280.67,267.178 280.337,266.011 279.5,265C 275.025,262.35 271.025,259.183 267.5,255.5C 268.348,254.375 269.348,254.375 270.5,255.5C 272.466,258.157 275.133,259.823 278.5,260.5C 279.648,262.149 280.981,263.649 282.5,265C 290.044,265.198 296.378,262.531 301.5,257C 303.218,256.654 304.885,256.154 306.5,255.5C 310.986,251.922 315.486,248.255 320,244.5C 320.615,242.884 321.615,241.551 323,240.5C 324.267,236.404 325.767,232.404 327.5,228.5C 309.004,227.668 290.338,227.168 271.5,227C 283.016,225.637 294.35,225.137 305.5,225.5C 309.304,224.175 313.138,224.509 317,226.5C 320.674,224.906 324.508,224.239 328.5,224.5C 328.5,222.167 328.5,219.833 328.5,217.5 Z"/></g>
<g><path style="opacity:1" fill="#7e7d82" d="M 112.5,273.5 C 116.546,277.861 121.546,280.694 127.5,282C 125.167,282.667 122.833,282.667 120.5,282C 116.104,279.948 112.104,277.448 108.5,274.5C 109.568,273.566 110.901,273.232 112.5,273.5 Z"/></g>
<g><path style="opacity:1" fill="#c7c6cd" d="M 131.5,265.5 C 132.814,267.895 132.814,270.395 131.5,273C 133.229,274.789 133.896,276.956 133.5,279.5C 133.262,281.404 132.262,282.738 130.5,283.5C 130.428,280.807 130.095,278.14 129.5,275.5C 131.019,272.399 131.685,269.066 131.5,265.5 Z"/></g>
<g><path style="opacity:1" fill="#5d5d5d" d="M 177.5,279.5 C 179.337,279.639 179.67,280.306 178.5,281.5C 177.702,281.043 177.369,280.376 177.5,279.5 Z"/></g>
<g><path style="opacity:1" fill="#7278af" d="M 215.5,248.5 C 216.391,249.11 217.391,249.443 218.5,249.5C 217.905,252.346 217.905,255.346 218.5,258.5C 219.978,258.238 221.311,258.571 222.5,259.5C 224.476,262.348 224.809,265.348 223.5,268.5C 222.862,266.03 221.362,264.363 219,263.5C 216.955,264.638 216.288,266.305 217,268.5C 217.605,266.519 218.605,266.185 220,267.5C 221.085,269.373 222.418,271.04 224,272.5C 224.49,273.793 224.657,275.127 224.5,276.5C 223.796,273.791 222.129,271.791 219.5,270.5C 218.895,273.304 218.062,275.971 217,278.5C 216.502,281.482 216.335,284.482 216.5,287.5C 215.683,285.031 215.183,282.365 215,279.5C 213.203,292.717 212.37,292.717 212.5,279.5C 213.341,273.126 214.341,266.626 215.5,260C 214.731,256.076 214.731,252.243 215.5,248.5 Z"/></g>
<g><path style="opacity:1" fill="#9b9a9d" d="M 129.5,287.5 C 130.434,286.432 130.768,285.099 130.5,283.5C 132.262,282.738 133.262,281.404 133.5,279.5C 136.073,280.555 138.739,280.722 141.5,280C 148.93,277.467 156.263,274.634 163.5,271.5C 163.5,272.5 163.5,273.5 163.5,274.5C 154.306,278.551 144.64,281.217 134.5,282.5C 134.286,284.144 134.62,285.644 135.5,287C 134.258,287.311 133.258,286.811 132.5,285.5C 131.9,287.576 131.567,289.576 131.5,291.5C 130.295,290.423 129.628,289.09 129.5,287.5 Z"/></g>
<g><path style="opacity:1" fill="#f2f4f7" d="M 224.5,276.5 C 225.167,277.833 225.833,279.167 226.5,280.5C 227.032,285.892 227.032,291.226 226.5,296.5C 226.833,297.833 227.167,299.167 227.5,300.5C 228.735,301.34 229.735,302.34 230.5,303.5C 231.434,304.568 231.768,305.901 231.5,307.5C 231.675,309.621 231.341,311.621 230.5,313.5C 228.882,317.575 227.882,321.908 227.5,326.5C 226.504,326.414 225.671,326.748 225,327.5C 225.263,328.951 225.096,330.284 224.5,331.5C 223.614,330.675 223.281,329.675 223.5,328.5C 221.876,328.36 220.71,329.027 220,330.5C 218.873,327.623 218.206,324.623 218,321.5C 215.978,320.198 214.478,318.532 213.5,316.5C 212.835,313.53 212.169,310.53 211.5,307.5C 213.109,304.701 214.109,301.701 214.5,298.5C 216.091,295.039 216.758,291.372 216.5,287.5C 216.335,284.482 216.502,281.482 217,278.5C 218.062,275.971 218.895,273.304 219.5,270.5C 222.129,271.791 223.796,273.791 224.5,276.5 Z"/></g>
<g><path style="opacity:1" fill="#9498c4" d="M 212.5,279.5 C 212.37,292.717 213.203,292.717 215,279.5C 215.183,282.365 215.683,285.031 216.5,287.5C 216.758,291.372 216.091,295.039 214.5,298.5C 211.928,297.719 209.928,296.219 208.5,294C 211.186,291.488 212.186,288.321 211.5,284.5C 211.216,282.585 211.549,280.919 212.5,279.5 Z"/></g>
<g><path style="opacity:1" fill="#c1caec" d="M 234.5,289.5 C 235.461,291.265 235.795,293.265 235.5,295.5C 233.708,295.634 232.042,295.301 230.5,294.5C 230.5,293.5 230.5,292.5 230.5,291.5C 231.467,290.194 232.801,289.527 234.5,289.5 Z"/></g>
<g><path style="opacity:1" fill="#a7a6b5" d="M 248.5,292.5 C 253.371,293.929 258.371,295.096 263.5,296C 260.883,296.822 258.216,297.322 255.5,297.5C 253.097,297.552 250.764,297.219 248.5,296.5C 248.5,295.167 248.5,293.833 248.5,292.5 Z"/></g>
<g><path style="opacity:1" fill="#cfd0e1" d="M 248.5,296.5 C 250.764,297.219 253.097,297.552 255.5,297.5C 254.34,299.203 255.007,299.869 257.5,299.5C 257.719,300.675 257.386,301.675 256.5,302.5C 255.264,301.754 253.93,301.421 252.5,301.5C 252.5,300.5 252.5,299.5 252.5,298.5C 250.774,298.185 249.107,298.019 247.5,298C 246.167,299 246.167,300 247.5,301C 246.627,302.045 245.627,302.878 244.5,303.5C 243.68,299.778 245.013,297.445 248.5,296.5 Z"/></g>
<g><path style="opacity:1" fill="#929293" d="M 177.5,266.5 C 176.167,266.5 175.5,267.167 175.5,268.5C 172.303,269.531 170.303,271.698 169.5,275C 171.642,278.43 172.975,282.263 173.5,286.5C 174.5,286.5 175.5,286.5 176.5,286.5C 176.281,285.325 176.614,284.325 177.5,283.5C 178.395,285.246 179.062,287.08 179.5,289C 178.352,290.726 177.185,290.559 176,288.5C 175.675,290.553 176.009,292.553 177,294.5C 179.741,298.877 182.574,303.21 185.5,307.5C 183.926,308.631 182.259,308.798 180.5,308C 181.517,306.951 181.684,305.784 181,304.5C 178.595,299.952 175.761,295.619 172.5,291.5C 170.966,285.334 168.966,279.334 166.5,273.5C 165.167,270.5 165.167,267.5 166.5,264.5C 167.452,266.045 167.785,267.712 167.5,269.5C 170.495,268.661 173.328,267.327 176,265.5C 176.765,265.57 177.265,265.903 177.5,266.5 Z"/></g>
<g><path style="opacity:1" fill="#b9b9b9" d="M 131.5,301.5 C 130.833,301.5 130.167,301.5 129.5,301.5C 130.388,298.946 130.721,296.279 130.5,293.5C 131.5,293.5 132.5,293.5 133.5,293.5C 133.416,296.327 132.75,298.994 131.5,301.5 Z"/></g>
<g><path style="opacity:1" fill="#616797" d="M 230.5,291.5 C 230.5,292.5 230.5,293.5 230.5,294.5C 229.449,297.344 229.449,300.344 230.5,303.5C 229.735,302.34 228.735,301.34 227.5,300.5C 227.167,299.167 226.833,297.833 226.5,296.5C 227.032,291.226 227.032,285.892 226.5,280.5C 226.369,279.761 226.536,279.094 227,278.5C 228.802,282.622 229.969,286.955 230.5,291.5 Z"/></g>
<g><path style="opacity:1" fill="#6266ad" d="M 242.5,298.5 C 242.5,300.167 242.5,301.833 242.5,303.5C 241.385,306.454 240.385,309.454 239.5,312.5C 237.866,311.028 236.366,309.362 235,307.5C 234.001,312.535 232.835,312.535 231.5,307.5C 231.768,305.901 231.434,304.568 230.5,303.5C 229.449,300.344 229.449,297.344 230.5,294.5C 232.042,295.301 233.708,295.634 235.5,295.5C 235.795,293.265 235.461,291.265 234.5,289.5C 234.369,288.624 234.702,287.957 235.5,287.5C 237.291,287.962 238.291,289.129 238.5,291C 237.841,293.462 237.507,295.962 237.5,298.5C 239.167,298.5 240.833,298.5 242.5,298.5 Z"/></g>
<g><path style="opacity:1" fill="#706f75" d="M 129.5,301.5 C 130.167,301.5 130.833,301.5 131.5,301.5C 132.5,302.167 133.5,302.833 134.5,303.5C 133.504,303.414 132.671,303.748 132,304.5C 130.18,307.704 130.347,310.704 132.5,313.5C 132.333,314.167 132.167,314.833 132,315.5C 131.015,314.186 129.848,313.186 128.5,312.5C 128.461,311.417 128.127,310.417 127.5,309.5C 129.055,307.057 129.722,304.39 129.5,301.5 Z"/></g>
<g><path style="opacity:1" fill="#b6b7cb" d="M 200.5,229.5 C 206.456,230.184 212.456,230.184 218.5,229.5C 218.663,231.857 218.497,234.19 218,236.5C 217.617,237.056 217.117,237.389 216.5,237.5C 216.993,235.194 217.326,232.861 217.5,230.5C 215.167,230.5 212.833,230.5 210.5,230.5C 210.5,231.833 210.5,233.167 210.5,234.5C 209.5,234.5 208.5,234.5 207.5,234.5C 207.5,233.5 207.5,232.5 207.5,231.5C 205.833,231.5 204.167,231.5 202.5,231.5C 204.473,250.859 206.806,270.192 209.5,289.5C 210.17,287.709 210.837,286.042 211.5,284.5C 212.186,288.321 211.186,291.488 208.5,294C 209.928,296.219 211.928,297.719 214.5,298.5C 214.109,301.701 213.109,304.701 211.5,307.5C 212.169,310.53 212.835,313.53 213.5,316.5C 211.518,318.597 210.518,321.264 210.5,324.5C 209.325,324.719 208.325,324.386 207.5,323.5C 209.509,319.48 209.842,315.48 208.5,311.5C 208.666,307.486 208.499,303.486 208,299.5C 205.9,293.001 204.567,286.334 204,279.5C 202.634,262.842 201.467,246.176 200.5,229.5 Z"/></g>
<g><path style="opacity:1" fill="#bcbbc5" d="M 134.5,303.5 C 134.279,304.735 133.612,305.735 132.5,306.5C 132.897,309.254 133.23,312.254 133.5,315.5C 135.5,315.833 137.5,316.167 139.5,316.5C 137.302,317.165 134.969,317.832 132.5,318.5C 134.396,319.466 136.396,319.799 138.5,319.5C 135.319,320.59 131.985,320.59 128.5,319.5C 128.135,316.921 128.135,314.588 128.5,312.5C 129.848,313.186 131.015,314.186 132,315.5C 132.167,314.833 132.333,314.167 132.5,313.5C 130.347,310.704 130.18,307.704 132,304.5C 132.671,303.748 133.504,303.414 134.5,303.5 Z"/></g>
<g><path style="opacity:1" fill="#858488" d="M 138.5,319.5 C 136.396,319.799 134.396,319.466 132.5,318.5C 134.969,317.832 137.302,317.165 139.5,316.5C 143.854,315.033 148.188,315.366 152.5,317.5C 147.905,319.478 143.239,320.145 138.5,319.5 Z"/></g>
<g><path style="opacity:1" fill="#767bae" d="M 231.5,307.5 C 232.835,312.535 234.001,312.535 235,307.5C 236.366,309.362 237.866,311.028 239.5,312.5C 238.735,315.096 238.401,317.763 238.5,320.5C 236.508,320.328 234.842,320.995 233.5,322.5C 232.779,320.314 232.113,318.147 231.5,316C 232.883,314.539 232.549,313.706 230.5,313.5C 231.341,311.621 231.675,309.621 231.5,307.5 Z"/></g>
<g><path style="opacity:1" fill="#babfde" d="M 242.5,303.5 C 242.833,303.5 243.167,303.5 243.5,303.5C 242.29,309.346 240.624,315.013 238.5,320.5C 238.401,317.763 238.735,315.096 239.5,312.5C 240.385,309.454 241.385,306.454 242.5,303.5 Z"/></g>
<g><path style="opacity:1" fill="#8589a1" d="M 230.5,313.5 C 232.549,313.706 232.883,314.539 231.5,316C 232.113,318.147 232.779,320.314 233.5,322.5C 234.842,320.995 236.508,320.328 238.5,320.5C 235.517,322.163 233.184,324.496 231.5,327.5C 230.126,327.208 228.793,326.875 227.5,326.5C 227.882,321.908 228.882,317.575 230.5,313.5 Z"/></g>
<g><path style="opacity:1" fill="#94939d" d="M 208.5,311.5 C 209.842,315.48 209.509,319.48 207.5,323.5C 208.325,324.386 209.325,324.719 210.5,324.5C 210.518,321.264 211.518,318.597 213.5,316.5C 214.478,318.532 215.978,320.198 218,321.5C 218.206,324.623 218.873,327.623 220,330.5C 220.71,329.027 221.876,328.36 223.5,328.5C 223.281,329.675 223.614,330.675 224.5,331.5C 225.096,330.284 225.263,328.951 225,327.5C 225.671,326.748 226.504,326.414 227.5,326.5C 228.793,326.875 230.126,327.208 231.5,327.5C 229.368,330.185 227.368,332.852 225.5,335.5C 224.448,335.649 223.448,335.483 222.5,335C 222.833,334.667 223.167,334.333 223.5,334C 219.168,333.417 214.835,332.917 210.5,332.5C 210.5,331.5 210.5,330.5 210.5,329.5C 207.5,329.167 206.167,330.5 206.5,333.5C 207.675,333.281 208.675,333.614 209.5,334.5C 207.409,338.35 205.576,342.35 204,346.5C 202.847,348.818 201.347,350.818 199.5,352.5C 199.963,349.518 200.296,346.518 200.5,343.5C 201.675,343.719 202.675,343.386 203.5,342.5C 202.585,341.672 201.919,340.672 201.5,339.5C 203.069,336.321 204.069,332.988 204.5,329.5C 203.448,329.649 202.448,329.483 201.5,329C 197.359,325.694 193.359,322.194 189.5,318.5C 188.071,316.045 186.738,313.545 185.5,311C 185.85,309.743 186.517,309.409 187.5,310C 190.123,312.786 192.123,315.953 193.5,319.5C 195.956,321.264 198.623,322.931 201.5,324.5C 203.045,325.452 204.712,325.785 206.5,325.5C 207.167,320.833 207.833,316.167 208.5,311.5 Z"/></g>
<g><path style="opacity:1" fill="#7c7b7f" d="M 178.5,336.5 C 178.062,336.435 177.728,336.601 177.5,337C 178.583,339.056 180.25,340.389 182.5,341C 179.894,341.45 178.561,342.95 178.5,345.5C 176.852,340.198 174.185,335.531 170.5,331.5C 171.552,331.351 172.552,331.517 173.5,332C 174.822,333.976 176.488,335.476 178.5,336.5 Z"/></g>
<g><path style="opacity:1" fill="#a2a1a9" d="M 181.5,338.5 C 183.619,338.468 184.952,339.468 185.5,341.5C 184.883,343.321 184.716,345.321 185,347.5C 182.432,345.797 181.932,343.631 183.5,341C 182.944,339.989 182.278,339.156 181.5,338.5 Z"/></g>
<g><path style="opacity:1" fill="#515058" d="M 178.5,336.5 C 179.5,337.167 180.5,337.833 181.5,338.5C 182.278,339.156 182.944,339.989 183.5,341C 181.932,343.631 182.432,345.797 185,347.5C 184.716,345.321 184.883,343.321 185.5,341.5C 186.906,341.973 187.573,342.973 187.5,344.5C 187.5,346.5 187.5,348.5 187.5,350.5C 186.5,350.5 185.5,350.5 184.5,350.5C 182.909,348.367 180.909,346.701 178.5,345.5C 178.561,342.95 179.894,341.45 182.5,341C 180.25,340.389 178.583,339.056 177.5,337C 177.728,336.601 178.062,336.435 178.5,336.5 Z"/></g>
<g><path style="opacity:1" fill="#8d8d91" d="M 187.5,344.5 C 189.842,349.488 193.842,352.154 199.5,352.5C 199.03,353.693 198.03,354.36 196.5,354.5C 192.409,353.104 188.409,351.771 184.5,350.5C 185.5,350.5 186.5,350.5 187.5,350.5C 187.5,348.5 187.5,346.5 187.5,344.5 Z"/></g>
</svg>
